<svg width="81" height="80" viewBox="0 0 81 80" fill="none" xmlns="http://www.w3.org/2000/svg">
<g clip-path="url(#clip0_14_538)">
<path d="M61.4199 0H18.9199C8.56458 0 0.169922 8.39466 0.169922 18.75V61.25C0.169922 71.6053 8.56458 80 18.9199 80H61.4199C71.7753 80 80.1699 71.6053 80.1699 61.25V18.75C80.1699 8.39466 71.7753 0 61.4199 0Z" fill="#330000"/>
<path d="M38.8366 47.604H26.4366L23.9032 55.4375C23.8366 55.7375 23.5701 55.9375 23.2701 55.9041H17.0032C16.6366 55.9041 16.5366 55.7041 16.6366 55.3041L27.3701 24.4041C27.4701 24.0709 27.5701 23.704 27.7032 23.304C27.8366 22.604 27.9032 21.8709 27.9032 21.1375C27.8701 20.9709 28.0032 20.8041 28.1701 20.7709H36.8032C37.0701 20.7709 37.2032 20.8709 37.2366 21.0375L49.4032 55.3709C49.5032 55.7375 49.4032 55.9041 49.0701 55.9041H42.1032C41.8701 55.9375 41.6366 55.7709 41.5701 55.5375L38.8366 47.604ZM28.3701 40.8375H36.8366C36.6366 40.1375 36.3701 39.3041 36.0701 38.4375C35.7701 37.5375 35.4701 36.5709 35.1701 35.5709C34.8366 34.5375 34.5366 33.5375 34.2032 32.5041C33.8701 31.4709 33.5701 30.504 33.3032 29.5375C33.0366 28.6044 32.8032 27.7375 32.5701 26.9375H32.5032C32.2032 28.3709 31.8366 29.8044 31.3701 31.2375C30.8701 32.8375 30.3701 34.5041 29.8366 36.1709C29.4061 37.7442 28.9169 39.3008 28.3701 40.8375ZM56.8366 26.6041C55.7366 26.6375 54.6701 26.2041 53.8701 25.4375C53.1035 24.6041 52.7035 23.504 52.7366 22.3709C52.7035 21.2375 53.1366 20.1709 53.9366 19.404C54.7366 18.6375 55.8035 18.2375 56.9035 18.2375C58.2035 18.2375 59.2035 18.6375 59.9366 19.404C60.6754 20.2122 61.07 21.2765 61.0366 22.3709C61.0701 23.504 60.6701 24.6041 59.8701 25.4375C59.1035 26.2375 57.9701 26.6709 56.8366 26.6041ZM53.1035 55.5375V29.8709C53.1035 29.5375 53.2366 29.4041 53.5366 29.4041H60.1366C60.4366 29.4041 60.5701 29.5709 60.5701 29.8709V55.5375C60.5701 55.904 60.4366 56.0709 60.1366 56.0709H53.6035C53.2701 56.0709 53.1035 55.8709 53.1035 55.5375Z" fill="#FF9A00"/>
<g clip-path="url(#clip1_14_538)">
<path d="M61.25 0H18.75C8.39466 0 0 8.39466 0 18.75V61.25C0 71.6053 8.39466 80 18.75 80H61.25C71.6053 80 80 71.6053 80 61.25V18.75C80 8.39466 71.6053 0 61.25 0Z" fill="#00005B"/>
<path d="M32.8776 48.9063H20.4713L17.9401 56.7813C17.8776 57.0938 17.5963 57.2813 17.3151 57.25H11.0338C10.6588 57.25 10.5651 57.0625 10.6588 56.6563L21.4088 25.7813C21.5026 25.4375 21.5963 25.0938 21.7526 24.6875C21.9088 24 22.0338 23.2812 22.0338 22.5625C22.0026 22.4062 22.1276 22.2188 22.3151 22.1875H30.9713C31.1901 22.1875 31.3776 22.2813 31.4088 22.4688L43.5338 56.7188C43.6276 57.0938 43.5338 57.25 43.1901 57.25H36.2213C36.0026 57.2813 35.7526 57.125 35.6901 56.875L32.8776 48.9063ZM22.4088 42.25H30.8776C30.6901 41.5625 30.4088 40.7188 30.0963 39.8438C29.7838 38.9375 29.5026 37.9688 29.1901 36.9688C28.8463 35.9375 28.5651 34.9375 28.2213 33.9063C27.8776 32.875 27.5963 31.9063 27.3151 30.9375C27.0338 30 26.8151 29.125 26.5651 28.3437H26.5026C26.1901 29.7812 25.8463 31.2188 25.3776 32.6563C24.8776 34.25 24.3776 35.9375 23.8463 37.5938C23.4401 39.2813 22.9088 40.8438 22.4088 42.25ZM69.1276 30.9375V51.4063C69.1276 52.3125 69.1276 53.0938 69.1588 53.8125C69.1901 54.5 69.2213 55.125 69.2526 55.6563C69.3151 56.1875 69.3463 56.5 69.3776 56.8438C69.4088 57.1562 69.2838 57.2813 69.0026 57.2813H63.2838C63.0026 57.3125 62.7526 57.1563 62.6588 56.9063L62.4713 56.0625C62.4088 55.8438 62.4088 55.5938 62.4088 55.375C61.3463 56.3438 60.0338 57.0313 58.6276 57.4375C57.4401 57.7813 56.1588 57.9375 54.9088 57.9375C53.6588 57.9375 52.4401 57.7813 51.2838 57.375C50.2213 57 49.2213 56.375 48.4401 55.5313C47.5651 54.5938 46.9401 53.5 46.5651 52.2813C46.0963 50.75 45.8776 49.1563 45.9088 47.5313V30.9688C45.8776 30.7812 46.0026 30.5625 46.2526 30.5312H52.7213C52.9088 30.5 53.1276 30.625 53.1588 30.875V46.6563C53.1588 48.125 53.5026 49.2812 54.1276 50.125C54.7526 50.9688 56.0651 51.4063 57.5651 51.4063C58.3463 51.4063 59.0963 51.2813 59.8463 51C60.6276 50.7188 61.3151 50.375 61.9401 49.9063V30.9375C61.9401 30.7188 62.0963 30.5625 62.4088 30.5625H68.7838C68.9401 30.5313 69.1588 30.6562 69.1588 30.8438C69.1276 30.875 69.1276 30.9063 69.1276 30.9375Z" fill="#9999FF"/>
</g>
</g>
<defs>
<clipPath id="clip0_14_538">
<rect width="80" height="80" fill="white" transform="translate(0.169922)"/>
</clipPath>
<clipPath id="clip1_14_538">
<rect width="80" height="80" fill="white"/>
</clipPath>
</defs>
</svg>
