<svg width="80" height="80" viewBox="0 0 80 80" fill="none" xmlns="http://www.w3.org/2000/svg">
<path d="M37.1129 0.037394C36.8098 0.0693242 35.8635 0.181393 35.0287 0.279688C31.6632 0.663476 27.8468 1.67397 24.4975 3.08454C12.3762 8.14766 3.25343 19.2562 0.736484 31.9976C0.14404 35.0279 0 36.5167 0 40.0115C0 44.5162 0.447778 47.6247 1.63454 51.5527C5.51424 64.4062 15.6146 74.4874 28.505 78.381C32.3847 79.5524 35.511 80 40 80C44.506 80 47.6153 79.5524 51.5445 78.3659C64.4017 74.4874 74.4858 64.3899 78.3805 51.5032C79.5522 47.6247 80 44.4993 80 40.0115C80 38.1038 79.9048 35.9251 79.7921 35.1224C78.4932 25.8589 74.6768 18.0692 68.3139 11.7057C61.963 5.39102 54.2036 1.56128 45.1291 0.262784C43.8791 0.0862284 38.0912 -0.0753008 37.1129 0.037394ZM24.0472 25.281C24.8989 25.5377 25.2972 25.7781 25.8747 26.3548C26.9975 27.4942 27.2543 28.1184 27.2543 29.8327C27.2543 31.1167 27.2055 31.3565 26.8216 32.0289C26.0826 33.2786 24.3679 34.4331 23.1817 34.4644C22.3469 34.4819 22.3814 34.1125 23.2945 33.1515C24.5125 31.8849 24.6885 31.4047 24.6885 29.5121C24.6735 27.6858 24.4487 27.0616 23.5994 26.5482C22.893 26.1156 22.1246 26.1475 21.0017 26.6753C18.0833 28.0715 14.9251 32.7189 13.692 37.4802C12.0555 43.8268 14.957 48.9062 19.7348 48.0404C21.1288 47.7837 23.7585 46.4389 24.8989 45.3795C25.8433 44.5162 25.8433 44.4993 25.9385 43.4262C26.149 41.1804 27.734 38.9378 29.8527 37.896C30.8284 37.4139 31.0708 37.3675 32.3846 37.3675C33.6347 37.3675 33.9234 37.4314 34.5327 37.7664C36.4723 38.8745 36.0715 41.454 33.9722 41.454C32.7541 41.454 32.1279 40.8279 33.0109 40.4936C33.877 40.173 33.5539 38.9697 32.5462 38.698C31.3595 38.3924 30.0117 39.1945 29.1625 40.7327C28.1355 42.5922 28.0885 44.8048 29.0648 45.8128C30.0117 46.8226 31.1979 46.0231 32.1129 43.7285C32.5926 42.5597 33.2821 41.9336 34.085 41.9336C34.7895 41.9336 34.9191 42.3668 34.6129 43.6822C34.1632 45.717 34.4689 46.2454 35.7358 45.6218C36.1516 45.4284 36.8418 44.9813 37.2576 44.6608L38.0429 44.0347L38.574 41.2612C39.1514 38.1527 39.3737 37.7344 40.5605 37.5122C41.7003 37.3018 41.9571 37.864 41.5387 39.6421L41.3133 40.6376L42.1481 39.7861C44.1196 37.7664 46.5413 36.7734 47.3755 37.6073C47.8233 38.055 47.7744 38.6172 47.1338 40.6031C46.83 41.5498 46.4117 43.0417 46.2213 43.8901C45.9326 45.1717 45.9151 45.4772 46.0773 45.6857C46.5908 46.2942 48.1608 45.6682 49.5555 44.3058L50.3728 43.5063L50.4705 41.7257C50.5657 39.674 50.7567 38.9378 51.3022 38.2798C51.8157 37.6712 52.7457 37.2236 53.2423 37.3506C53.7389 37.4802 53.7389 37.9598 53.2912 39.371C52.6649 41.31 52.7307 45.7808 53.372 45.7808C53.6287 45.7808 54.942 44.4035 55.7768 43.2496L56.4006 42.3981L55.9039 41.8872C55.0378 40.9732 54.8299 40.3809 54.8299 38.8889C54.8299 37.8008 54.9107 37.3995 55.1819 36.8686C55.6321 36.0371 56.3367 35.4286 57.1709 35.1863C58.0514 34.9146 59.1423 35.3622 59.5901 36.1642C60.0404 36.9813 59.9283 38.8082 59.3503 40.0603L58.9344 40.9725H59.4949C60.2652 40.9725 60.569 40.7816 61.9486 39.4831C62.6701 38.7938 63.5043 38.1996 64.128 37.911C66.5817 36.759 69.4688 37.3506 69.9479 39.1137C70.3487 40.5249 69.4688 41.5179 67.9275 41.4052C66.8216 41.325 66.6136 41.0358 67.2549 40.4936C68.4091 39.5294 67.2549 38.2973 65.6035 38.7449C64.7054 38.9866 63.6953 39.9946 63.1673 41.166C62.1077 43.5063 62.6701 46.2623 64.1919 46.2623C64.8012 46.2623 65.8772 45.0596 66.293 43.8901C66.7896 42.5427 67.8317 41.6944 68.6171 41.9993C69.0504 42.159 69.0824 42.5916 68.8106 43.9539C68.505 45.4459 68.458 46.8402 68.6978 47.4807C68.7937 47.7198 69.0824 48.17 69.356 48.4736C69.8671 49.0502 69.8846 49.2587 69.4512 49.5323C69.2433 49.6763 68.969 49.6131 68.297 49.2443C67.367 48.7623 66.5648 47.8964 66.2761 47.0793L66.1001 46.5998L65.4588 47.0793C65.0893 47.336 64.5125 47.6247 64.1769 47.7198C62.8461 48.0723 61.2096 47.1601 60.4418 45.6218C60.1356 45.027 60.0404 43.2815 60.2652 42.6085C60.393 42.2391 60.393 42.2391 59.8788 42.4958C59.6076 42.6404 59.0302 42.7994 58.5825 42.8483C57.8435 42.9297 57.7307 43.0098 56.9949 43.9389C55.9528 45.2349 54.1078 46.9842 53.3544 47.3536C51.7524 48.1531 51.2239 47.9283 50.8055 46.2767L50.5168 45.1717L49.8267 45.7808C48.9462 46.5509 47.1826 47.4807 46.1718 47.7054C45.2105 47.9133 44.1834 47.6078 43.767 46.9666C43.1438 46.0056 43.3518 43.9708 44.3444 41.2292C45.0809 39.1945 44.5529 39.1632 42.6936 41.1021C41.3139 42.5597 40.7215 43.6015 40.3376 45.2205C39.9367 46.9034 39.4545 47.512 38.3661 47.7687C37.7079 47.9133 37.4016 47.512 37.5319 46.6317L37.6271 45.9248L37.0177 46.3431C36.1516 46.9353 35.0607 47.4807 34.3073 47.6885C33.5539 47.8964 32.5606 47.6735 32.3208 47.2553C31.888 46.5196 31.888 46.5196 31.2154 47.0474C29.755 48.2338 27.6708 47.8964 26.6136 46.3262L26.2755 45.8297L25.219 46.8076C22.1709 49.5962 18.357 50.8459 15.5344 49.98C11.9428 48.8918 9.95632 45.8128 9.98826 41.3739C10.0033 36.918 11.9748 32.2224 15.2946 28.7445C17.1709 26.788 18.9344 25.6335 20.7305 25.2009C22.0269 24.8803 22.8147 24.8966 24.0472 25.281Z" fill="#00C4CC"/>
<path d="M56.5445 36.6783C56.1919 37.0301 56.3215 38.4413 56.7699 39.3391C56.9948 39.8037 57.2346 40.1731 57.3148 40.1731C57.3787 40.1731 57.5227 39.8037 57.6354 39.3535C58.0362 37.6881 57.3148 35.9076 56.5445 36.6783Z" fill="#00C4CC"/>
</svg>
