<svg width="81" height="80" viewBox="0 0 81 80" fill="none" xmlns="http://www.w3.org/2000/svg">
<g clip-path="url(#clip0_14_474)">
<path d="M61.335 0H18.835C8.47962 0 0.0849609 8.39466 0.0849609 18.75V61.25C0.0849609 71.6053 8.47962 80 18.835 80H61.335C71.6903 80 80.085 71.6053 80.085 61.25V18.75C80.085 8.39466 71.6903 0 61.335 0Z" fill="#330000"/>
<path d="M38.7517 47.6041H26.3517L23.8182 55.4375C23.7517 55.7375 23.4851 55.9375 23.1851 55.9041H16.9182C16.5517 55.9041 16.4517 55.7041 16.5517 55.3041L27.2851 24.4041C27.3851 24.0709 27.4851 23.7041 27.6182 23.3041C27.7517 22.6041 27.8182 21.8709 27.8182 21.1375C27.7851 20.9709 27.9182 20.8041 28.0851 20.7709H36.7182C36.9851 20.7709 37.1182 20.8709 37.1517 21.0375L49.3182 55.3709C49.4182 55.7375 49.3182 55.9041 48.9851 55.9041H42.0182C41.7851 55.9375 41.5517 55.7709 41.4851 55.5375L38.7517 47.6041ZM28.2851 40.8375H36.7517C36.5517 40.1375 36.2851 39.3041 35.9851 38.4375C35.6851 37.5375 35.3851 36.5709 35.0851 35.5709C34.7517 34.5375 34.4517 33.5375 34.1182 32.5041C33.7851 31.4709 33.4851 30.5041 33.2182 29.5375C32.9517 28.6044 32.7182 27.7375 32.4851 26.9375H32.4182C32.1182 28.3709 31.7517 29.8044 31.2851 31.2375C30.7851 32.8375 30.2851 34.5041 29.7517 36.1709C29.3212 37.7442 28.832 39.3008 28.2851 40.8375ZM56.7517 26.6041C55.6517 26.6375 54.5851 26.2041 53.7851 25.4375C53.0185 24.6041 52.6185 23.5041 52.6517 22.3709C52.6185 21.2375 53.0517 20.1709 53.8517 19.4041C54.6517 18.6375 55.7185 18.2375 56.8185 18.2375C58.1185 18.2375 59.1185 18.6375 59.8517 19.4041C60.5904 20.2122 60.985 21.2765 60.9517 22.3709C60.9851 23.5041 60.5851 24.6041 59.7851 25.4375C59.0185 26.2375 57.8851 26.6709 56.7517 26.6041ZM53.0185 55.5375V29.8709C53.0185 29.5375 53.1517 29.4041 53.4517 29.4041H60.0517C60.3517 29.4041 60.4851 29.5709 60.4851 29.8709V55.5375C60.4851 55.9041 60.3517 56.0709 60.0517 56.0709H53.5185C53.1851 56.0709 53.0185 55.8709 53.0185 55.5375Z" fill="#FF9A00"/>
</g>
<defs>
<clipPath id="clip0_14_474">
<rect width="80" height="80" fill="white" transform="translate(0.0849609)"/>
</clipPath>
</defs>
</svg>
