<svg width="81" height="80" viewBox="0 0 81 80" fill="none" xmlns="http://www.w3.org/2000/svg">
<g clip-path="url(#clip0_14_554)">
<path d="M61.4199 0H18.9199C8.56458 0 0.169922 8.39466 0.169922 18.75V61.25C0.169922 71.6053 8.56458 80 18.9199 80H61.4199C71.7753 80 80.1699 71.6053 80.1699 61.25V18.75C80.1699 8.39466 71.7753 0 61.4199 0Z" fill="#330000"/>
<path d="M38.8366 47.604H26.4366L23.9032 55.4375C23.8366 55.7375 23.5701 55.9375 23.2701 55.9041H17.0032C16.6366 55.9041 16.5366 55.7041 16.6366 55.3041L27.3701 24.4041C27.4701 24.0709 27.5701 23.704 27.7032 23.304C27.8366 22.604 27.9032 21.8709 27.9032 21.1375C27.8701 20.9709 28.0032 20.8041 28.1701 20.7709H36.8032C37.0701 20.7709 37.2032 20.8709 37.2366 21.0375L49.4032 55.3709C49.5032 55.7375 49.4032 55.9041 49.0701 55.9041H42.1032C41.8701 55.9375 41.6366 55.7709 41.5701 55.5375L38.8366 47.604ZM28.3701 40.8375H36.8366C36.6366 40.1375 36.3701 39.3041 36.0701 38.4375C35.7701 37.5375 35.4701 36.5709 35.1701 35.5709C34.8366 34.5375 34.5366 33.5375 34.2032 32.5041C33.8701 31.4709 33.5701 30.504 33.3032 29.5375C33.0366 28.6044 32.8032 27.7375 32.5701 26.9375H32.5032C32.2032 28.3709 31.8366 29.8044 31.3701 31.2375C30.8701 32.8375 30.3701 34.5041 29.8366 36.1709C29.4061 37.7442 28.9169 39.3008 28.3701 40.8375ZM56.8366 26.6041C55.7366 26.6375 54.6701 26.2041 53.8701 25.4375C53.1035 24.6041 52.7035 23.504 52.7366 22.3709C52.7035 21.2375 53.1366 20.1709 53.9366 19.404C54.7366 18.6375 55.8035 18.2375 56.9035 18.2375C58.2035 18.2375 59.2035 18.6375 59.9366 19.404C60.6754 20.2122 61.07 21.2765 61.0366 22.3709C61.0701 23.504 60.6701 24.6041 59.8701 25.4375C59.1035 26.2375 57.9701 26.6709 56.8366 26.6041ZM53.1035 55.5375V29.8709C53.1035 29.5375 53.2366 29.4041 53.5366 29.4041H60.1366C60.4366 29.4041 60.5701 29.5709 60.5701 29.8709V55.5375C60.5701 55.904 60.4366 56.0709 60.1366 56.0709H53.6035C53.2701 56.0709 53.1035 55.8709 53.1035 55.5375Z" fill="#FF9A00"/>
<path d="M65.7188 0H12.2812C4.94622 0 -1 6.09869 -1 13.6218V66.3782C-1 73.9013 4.94622 80 12.2812 80H65.7188C73.0538 80 79 73.9013 79 66.3782V13.6218C79 6.09869 73.0538 0 65.7188 0Z" fill="#49021F"/>
<path d="M28.0529 20.9286V55.9908C28.0529 56.3581 27.892 56.5415 27.5698 56.5415H21.076C20.7895 56.5415 20.6463 56.3578 20.647 55.9908V20.9286C20.647 20.6354 20.8079 20.4886 21.1298 20.4883H27.6235C27.6781 20.4803 27.7338 20.4847 27.7866 20.501C27.8394 20.5174 27.8881 20.5454 27.9292 20.583C27.9704 20.6206 28.0031 20.6669 28.0251 20.7188C28.047 20.7707 28.0577 20.8269 28.0564 20.8834L28.0529 20.9286ZM47.611 57.0883L47.2654 57.0918C44.7953 57.1303 42.3479 56.6039 40.101 55.5508C38.0079 54.5571 36.2581 52.9352 35.0832 50.8995C33.896 48.8774 33.2882 46.3568 33.2595 43.3386L33.2585 43.111C33.2384 40.5848 33.8679 38.0977 35.0835 35.9004C36.302 33.7223 38.0792 31.9284 40.222 30.7136L40.3964 30.6161C42.7214 29.2953 45.5301 28.6347 48.822 28.6347L48.8913 28.635L49.0454 28.6386L49.2198 28.6456L49.4145 28.6559L49.6292 28.6697L49.8639 28.6873L50.3942 28.7318L50.5392 28.7447V17.9017C50.5392 17.6453 50.6467 17.5161 50.861 17.5161H57.6232C57.667 17.5097 57.7115 17.5138 57.7535 17.5281C57.7954 17.5424 57.8335 17.5666 57.8647 17.5986C57.8959 17.6306 57.9195 17.6697 57.9334 17.7127C57.9474 17.7557 57.9514 17.8014 57.9451 17.8463V50.3767C57.9473 51.0564 57.9742 51.7357 58.0257 52.4133L58.0764 53.1229L58.121 53.7834L58.1598 54.3947C58.1664 54.509 58.1392 54.6228 58.0818 54.721C58.0244 54.8192 57.9394 54.8974 57.8379 54.9453C56.0934 55.6914 54.2764 56.2449 52.4176 56.5963C50.8316 56.8966 49.224 57.0611 47.6114 57.0883M50.5395 50.2665V35.2399C50.2494 35.1593 49.9533 35.1041 49.6542 35.0748C49.2886 35.0371 48.9213 35.0187 48.5539 35.0197C47.2514 35.0065 45.9645 35.3081 44.7973 35.9004C43.6603 36.4801 42.6894 37.3526 41.9798 38.4325C41.246 39.5331 40.8792 40.9828 40.8795 42.7809C40.8534 43.9807 41.0444 45.175 41.4429 46.3033C41.7672 47.2126 42.28 48.039 42.9457 48.7254C43.5831 49.3569 44.3547 49.8279 45.1998 50.1014C46.0924 50.3978 47.0253 50.5466 47.9635 50.5421C48.4642 50.5421 48.9292 50.5235 49.3588 50.4867C49.7015 50.4602 50.0412 50.4023 50.3738 50.3136L50.5395 50.2665Z" fill="#FF3366"/>
</g>
<defs>
<clipPath id="clip0_14_554">
<rect width="80" height="80" fill="white" transform="translate(0.169922)"/>
</clipPath>
</defs>
</svg>
