<svg width="100" height="103" viewBox="0 0 100 103" fill="none" xmlns="http://www.w3.org/2000/svg">
<path d="M44.976 52.458C44.9567 52.4193 44.947 52.3903 44.947 52.371C44.6957 51.5783 44.57 50.341 44.57 48.659V48.543C44.57 48.137 44.483 47.934 44.309 47.934C43.5357 47.934 43.149 48.1563 43.149 48.601L43.265 49.935C43.265 50.051 43.1393 50.4183 42.888 51.037C42.6367 51.6557 42.511 52.1487 42.511 52.516C42.511 52.8833 42.5593 53.067 42.656 53.067C42.83 53.067 43.091 53.009 43.439 52.893C43.787 52.7577 44.1253 52.69 44.454 52.69C44.802 52.69 44.976 52.6127 44.976 52.458ZM39.466 46.31L39.089 44.628C39.089 44.454 39.8237 43.9707 41.293 43.178C42.7817 42.366 43.6613 41.931 43.932 41.873C44.2027 41.815 44.6957 41.786 45.411 41.786C46.1263 41.786 46.7933 41.8537 47.412 41.989C48.7267 42.279 49.384 42.5593 49.384 42.83C49.384 42.8493 49.3357 43.1007 49.239 43.584C48.9297 45.092 48.775 46.2907 48.775 47.18C48.775 47.2767 48.8717 47.354 49.065 47.412C49.2583 47.4507 49.355 47.4797 49.355 47.499C49.355 48.1177 49.5387 49.993 49.906 53.125C50.2927 56.2377 50.6213 58.2 50.892 59.012V59.041C50.892 59.0797 50.7373 59.2053 50.428 59.418C50.138 59.6307 49.993 59.8627 49.993 60.114C49.993 60.3653 50.138 60.5393 50.428 60.636C50.7373 60.7327 51.037 60.81 51.327 60.868C51.617 60.9067 51.762 61.0033 51.762 61.158C51.7427 61.1967 51.733 61.2643 51.733 61.361C51.733 61.4577 51.762 61.6317 51.82 61.883C51.878 62.2697 52.11 62.782 52.516 63.42L52.69 63.71C52.69 64.0387 52.139 64.3867 51.037 64.754C49.9543 65.1407 49.1423 65.334 48.601 65.334C48.079 65.334 47.557 65.2277 47.035 65.015C46.5323 64.8217 46.1167 64.609 45.788 64.377C45.4787 64.145 45.324 63.9807 45.324 63.884C45.324 63.8647 45.3433 63.7583 45.382 63.565C45.4787 63.0817 45.527 62.5597 45.527 61.999L44.889 58.026C44.889 57.9487 45.063 57.881 45.411 57.823C45.759 57.765 45.933 57.6393 45.933 57.446C45.933 57.1947 45.788 56.982 45.498 56.808C45.208 56.634 44.8503 56.547 44.425 56.547C44.019 56.547 43.526 56.6533 42.946 56.866C42.3853 57.0787 42.0567 57.2817 41.96 57.475C41.8827 57.649 41.7473 58.5093 41.554 60.056C41.3607 61.5833 41.264 62.724 41.264 63.478C41.264 63.6327 40.7517 63.8453 39.727 64.116C38.7023 64.3867 37.8517 64.522 37.175 64.522C36.827 64.522 36.2567 64.2707 35.464 63.768L35.087 63.536C35.029 63.478 35 63.391 35 63.275V63.217C35.29 62.8497 35.638 62.0667 36.044 60.868L36.276 60.23C36.5273 60.23 36.8173 60.085 37.146 59.795C37.494 59.4857 37.668 59.273 37.668 59.157C37.668 59.0217 37.5617 58.8187 37.349 58.548C37.1363 58.258 37.03 58.084 37.03 58.026V57.997L38.103 55.329C38.103 54.9037 38.3253 53.4053 38.77 50.834C39.234 48.2627 39.466 46.7547 39.466 46.31ZM66.0005 60.143L66.0875 60.694C66.0875 60.9647 65.9232 61.4673 65.5945 62.202C65.2852 62.9173 65.1015 63.3137 65.0435 63.391C64.8309 63.5843 64.3379 63.681 63.5645 63.681C62.0952 63.681 60.7515 63.6037 59.5335 63.449L58.8665 63.362C58.5379 63.362 58.2575 63.478 58.0255 63.71C57.7935 63.9227 57.4455 64.029 56.9815 64.029L54.3715 63.855C53.4049 63.855 52.9215 63.739 52.9215 63.507V63.449C53.0182 63.1203 53.0665 62.5983 53.0665 61.883L52.9215 59.447V59.418C52.9215 59.3213 53.1052 59.1377 53.4725 58.867C53.8399 58.5963 54.0235 58.3547 54.0235 58.142C54.0235 57.9293 53.9365 57.7263 53.7625 57.533C53.5885 57.3397 53.3179 57.185 52.9505 57.069C52.9119 56.953 52.8925 56.837 52.8925 56.721L53.0665 55.561C53.1052 55.2903 53.1245 55.039 53.1245 54.807L52.8635 50.167C52.8635 50.109 52.9409 50.022 53.0955 49.906C53.3855 49.6933 53.5305 49.5097 53.5305 49.355L53.3855 48.717C53.2695 48.601 53.1245 48.5043 52.9505 48.427C52.6605 48.3303 52.5155 48.2337 52.5155 48.137C52.5155 48.021 52.6219 47.6923 52.8345 47.151C53.0665 46.6097 53.1825 46.2713 53.1825 46.136L52.6895 43.584C52.6895 43.4293 53.1052 43.0523 53.9365 42.453C54.7679 41.8343 55.4542 41.525 55.9955 41.525C56.5562 41.525 57.2619 41.5927 58.1125 41.728C58.9825 41.8633 59.4175 41.9987 59.4175 42.134C59.4175 42.366 59.3402 42.9847 59.1855 43.99C59.0502 44.976 58.9342 45.498 58.8375 45.556C58.3735 45.788 58.1415 46.0393 58.1415 46.31C58.1415 46.5613 58.2865 46.8223 58.5765 47.093C58.8859 47.3443 59.0405 47.5087 59.0405 47.586V47.615C58.8859 49.761 58.8085 51.24 58.8085 52.052C58.8085 52.8447 58.8182 53.3087 58.8375 53.444C58.8762 53.56 58.9729 53.705 59.1275 53.879C59.3015 54.053 59.3885 54.1883 59.3885 54.285C59.3885 54.3817 59.2822 54.5847 59.0695 54.894C58.8762 55.184 58.7795 55.4547 58.7795 55.706C58.8375 56.3053 58.8665 56.779 58.8665 57.127C58.8665 57.4557 58.8472 57.6393 58.8085 57.678C58.1319 58.3547 57.7935 58.9347 57.7935 59.418C57.7935 59.5147 57.8419 59.65 57.9385 59.824C58.0352 59.998 58.1125 60.085 58.1705 60.085C58.2479 60.085 58.4702 59.9497 58.8375 59.679C59.2049 59.389 59.4852 59.244 59.6785 59.244H59.7655C60.4229 59.3793 61.0415 59.447 61.6215 59.447C62.2015 59.447 62.5785 59.36 62.7525 59.186C63.4099 58.5287 63.9319 57.7553 64.3185 56.866C64.4152 56.634 64.4925 56.518 64.5505 56.518C65.0919 56.518 65.5849 56.75 66.0295 57.214C66.4935 57.678 66.7255 58.0647 66.7255 58.374C66.6095 58.9733 66.4549 59.389 66.2615 59.621C66.0875 59.8337 66.0005 60.0077 66.0005 60.143Z" fill="white"/>
<path d="M51.9178 16.2663C58.9968 16.2489 73.5836 -1.14043 75.8409 19.7745C95.0175 14.7466 83.9064 34.956 86.1114 41.8998C88.3441 48.8277 108.742 57.8546 90.3739 66.5974C100.932 84.0199 79.0354 79.3013 73.3332 83.6727C67.6232 88.0315 65.6779 111.026 52.0207 95.5229C39.3716 111.351 36.9146 88.2083 31.1708 83.93C25.4209 79.669 3.82727 84.8516 13.7567 66.5233C-4.61012 58.8899 15.7635 49.298 17.9208 42.2754C20.0828 35.2527 8.68595 15.4551 28.4833 19.6435C29.7894 -0.903712 44.8326 16.3184 51.8886 16.2805" stroke="white" stroke-width="2.128" stroke-linecap="round" stroke-linejoin="round"/>
<g clip-path="url(#clip0_33_164)">
<path d="M73.0745 26.5806C78.7983 30.9204 100.418 25.8594 90.3934 44.1293C108.72 51.8669 88.2975 61.3435 86.1401 68.303C84.015 75.2673 95.3596 95.0933 75.5807 90.8576C74.2285 111.405 59.2237 94.1432 52.1447 94.1543C45.0656 94.1606 30.4635 111.514 28.2262 90.6098C9.04345 95.6093 20.1806 75.4156 17.9695 68.4372C15.7445 61.4619 -4.6214 52.364 13.7792 43.6843C3.2828 26.2302 25.1622 31.0119 30.886 26.6752C36.6113 22.3386 38.6458 -0.648411 52.2399 14.9072C64.9444 -0.874083 67.32 22.2802 73.0361 26.5884" stroke="white" stroke-width="2.128" stroke-linecap="round" stroke-linejoin="round"/>
</g>
<defs>
<clipPath id="clip0_33_164">
<rect width="98.3415" height="101" fill="white"/>
</clipPath>
</defs>
</svg>
