<svg width="121" height="120" viewBox="0 0 121 120" fill="none" xmlns="http://www.w3.org/2000/svg">
<mask id="path-1-outside-1_32_158" maskUnits="userSpaceOnUse" x="42.4746" y="45.4924" width="34" height="27" fill="black">
<rect fill="white" x="42.4746" y="45.4924" width="34" height="27"/>
<path d="M53.4506 57.9504C53.4313 57.9118 53.4216 57.8828 53.4216 57.8634C53.1703 57.0708 53.0446 55.8334 53.0446 54.1514V54.0354C53.0446 53.6294 52.9576 53.4264 52.7836 53.4264C52.0103 53.4264 51.6236 53.6488 51.6236 54.0934L51.7396 55.4274C51.7396 55.5434 51.6139 55.9108 51.3626 56.5294C51.1113 57.1481 50.9856 57.6411 50.9856 58.0084C50.9856 58.3758 51.0339 58.5594 51.1306 58.5594C51.3046 58.5594 51.5656 58.5014 51.9136 58.3854C52.2616 58.2501 52.5999 58.1824 52.9286 58.1824C53.2766 58.1824 53.4506 58.1051 53.4506 57.9504ZM47.9406 51.8024L47.5636 50.1204C47.5636 49.9464 48.2983 49.4631 49.7676 48.6704C51.2563 47.8584 52.1359 47.4234 52.4066 47.3654C52.6773 47.3074 53.1703 47.2784 53.8856 47.2784C54.6009 47.2784 55.2679 47.3461 55.8866 47.4814C57.2013 47.7714 57.8586 48.0518 57.8586 48.3224C57.8586 48.3418 57.8103 48.5931 57.7136 49.0764C57.4043 50.5844 57.2496 51.7831 57.2496 52.6724C57.2496 52.7691 57.3463 52.8464 57.5396 52.9044C57.7329 52.9431 57.8296 52.9721 57.8296 52.9914C57.8296 53.6101 58.0133 55.4854 58.3806 58.6174C58.7673 61.7301 59.0959 63.6924 59.3666 64.5044V64.5334C59.3666 64.5721 59.2119 64.6978 58.9026 64.9104C58.6126 65.1231 58.4676 65.3551 58.4676 65.6064C58.4676 65.8578 58.6126 66.0318 58.9026 66.1284C59.2119 66.2251 59.5116 66.3024 59.8016 66.3604C60.0916 66.3991 60.2366 66.4958 60.2366 66.6504C60.2173 66.6891 60.2076 66.7568 60.2076 66.8534C60.2076 66.9501 60.2366 67.1241 60.2946 67.3754C60.3526 67.7621 60.5846 68.2744 60.9906 68.9124L61.1646 69.2024C61.1646 69.5311 60.6136 69.8791 59.5116 70.2464C58.4289 70.6331 57.6169 70.8264 57.0756 70.8264C56.5536 70.8264 56.0316 70.7201 55.5096 70.5074C55.0069 70.3141 54.5913 70.1014 54.2626 69.8694C53.9533 69.6374 53.7986 69.4731 53.7986 69.3764C53.7986 69.3571 53.8179 69.2508 53.8566 69.0574C53.9533 68.5741 54.0016 68.0521 54.0016 67.4914L53.3636 63.5184C53.3636 63.4411 53.5376 63.3734 53.8856 63.3154C54.2336 63.2574 54.4076 63.1318 54.4076 62.9384C54.4076 62.6871 54.2626 62.4744 53.9726 62.3004C53.6826 62.1264 53.3249 62.0394 52.8996 62.0394C52.4936 62.0394 52.0006 62.1458 51.4206 62.3584C50.8599 62.5711 50.5313 62.7741 50.4346 62.9674C50.3573 63.1414 50.2219 64.0018 50.0286 65.5484C49.8353 67.0758 49.7386 68.2164 49.7386 68.9704C49.7386 69.1251 49.2263 69.3378 48.2016 69.6084C47.1769 69.8791 46.3263 70.0144 45.6496 70.0144C45.3016 70.0144 44.7313 69.7631 43.9386 69.2604L43.5616 69.0284C43.5036 68.9704 43.4746 68.8834 43.4746 68.7674V68.7094C43.7646 68.3421 44.1126 67.5591 44.5186 66.3604L44.7506 65.7224C45.0019 65.7224 45.2919 65.5774 45.6206 65.2874C45.9686 64.9781 46.1426 64.7654 46.1426 64.6494C46.1426 64.5141 46.0363 64.3111 45.8236 64.0404C45.6109 63.7504 45.5046 63.5764 45.5046 63.5184V63.4894L46.5776 60.8214C46.5776 60.3961 46.7999 58.8978 47.2446 56.3264C47.7086 53.7551 47.9406 52.2471 47.9406 51.8024ZM74.4752 65.6354L74.5622 66.1864C74.5622 66.4571 74.3978 66.9598 74.0692 67.6944C73.7598 68.4098 73.5762 68.8061 73.5182 68.8834C73.3055 69.0768 72.8125 69.1734 72.0392 69.1734C70.5698 69.1734 69.2262 69.0961 68.0082 68.9414L67.3412 68.8544C67.0125 68.8544 66.7322 68.9704 66.5002 69.2024C66.2682 69.4151 65.9202 69.5214 65.4562 69.5214L62.8462 69.3474C61.8795 69.3474 61.3962 69.2314 61.3962 68.9994V68.9414C61.4928 68.6128 61.5412 68.0908 61.5412 67.3754L61.3962 64.9394V64.9104C61.3962 64.8138 61.5798 64.6301 61.9472 64.3594C62.3145 64.0888 62.4982 63.8471 62.4982 63.6344C62.4982 63.4218 62.4112 63.2188 62.2372 63.0254C62.0632 62.8321 61.7925 62.6774 61.4252 62.5614C61.3865 62.4454 61.3672 62.3294 61.3672 62.2134L61.5412 61.0534C61.5798 60.7828 61.5992 60.5314 61.5992 60.2994L61.3382 55.6594C61.3382 55.6014 61.4155 55.5144 61.5702 55.3984C61.8602 55.1858 62.0052 55.0021 62.0052 54.8474L61.8602 54.2094C61.7442 54.0934 61.5992 53.9968 61.4252 53.9194C61.1352 53.8228 60.9902 53.7261 60.9902 53.6294C60.9902 53.5134 61.0965 53.1848 61.3092 52.6434C61.5412 52.1021 61.6572 51.7638 61.6572 51.6284L61.1642 49.0764C61.1642 48.9218 61.5798 48.5448 62.4112 47.9454C63.2425 47.3268 63.9288 47.0174 64.4702 47.0174C65.0308 47.0174 65.7365 47.0851 66.5872 47.2204C67.4572 47.3558 67.8922 47.4911 67.8922 47.6264C67.8922 47.8584 67.8148 48.4771 67.6602 49.4824C67.5248 50.4684 67.4088 50.9904 67.3122 51.0484C66.8482 51.2804 66.6162 51.5318 66.6162 51.8024C66.6162 52.0538 66.7612 52.3148 67.0512 52.5854C67.3605 52.8368 67.5152 53.0011 67.5152 53.0784V53.1074C67.3605 55.2534 67.2832 56.7324 67.2832 57.5444C67.2832 58.3371 67.2928 58.8011 67.3122 58.9364C67.3508 59.0524 67.4475 59.1974 67.6022 59.3714C67.7762 59.5454 67.8632 59.6808 67.8632 59.7774C67.8632 59.8741 67.7568 60.0771 67.5442 60.3864C67.3508 60.6764 67.2542 60.9471 67.2542 61.1984C67.3122 61.7978 67.3412 62.2714 67.3412 62.6194C67.3412 62.9481 67.3218 63.1318 67.2832 63.1704C66.6065 63.8471 66.2682 64.4271 66.2682 64.9104C66.2682 65.0071 66.3165 65.1424 66.4132 65.3164C66.5098 65.4904 66.5872 65.5774 66.6452 65.5774C66.7225 65.5774 66.9448 65.4421 67.3122 65.1714C67.6795 64.8814 67.9598 64.7364 68.1532 64.7364H68.2402C68.8975 64.8718 69.5162 64.9394 70.0962 64.9394C70.6762 64.9394 71.0532 64.8524 71.2272 64.6784C71.8845 64.0211 72.4065 63.2478 72.7932 62.3584C72.8898 62.1264 72.9672 62.0104 73.0252 62.0104C73.5665 62.0104 74.0595 62.2424 74.5042 62.7064C74.9682 63.1704 75.2002 63.5571 75.2002 63.8664C75.0842 64.4658 74.9295 64.8814 74.7362 65.1134C74.5622 65.3261 74.4752 65.5001 74.4752 65.6354Z"/>
</mask>
<path d="M53.4506 57.9504C53.4313 57.9118 53.4216 57.8828 53.4216 57.8634C53.1703 57.0708 53.0446 55.8334 53.0446 54.1514V54.0354C53.0446 53.6294 52.9576 53.4264 52.7836 53.4264C52.0103 53.4264 51.6236 53.6488 51.6236 54.0934L51.7396 55.4274C51.7396 55.5434 51.6139 55.9108 51.3626 56.5294C51.1113 57.1481 50.9856 57.6411 50.9856 58.0084C50.9856 58.3758 51.0339 58.5594 51.1306 58.5594C51.3046 58.5594 51.5656 58.5014 51.9136 58.3854C52.2616 58.2501 52.5999 58.1824 52.9286 58.1824C53.2766 58.1824 53.4506 58.1051 53.4506 57.9504ZM47.9406 51.8024L47.5636 50.1204C47.5636 49.9464 48.2983 49.4631 49.7676 48.6704C51.2563 47.8584 52.1359 47.4234 52.4066 47.3654C52.6773 47.3074 53.1703 47.2784 53.8856 47.2784C54.6009 47.2784 55.2679 47.3461 55.8866 47.4814C57.2013 47.7714 57.8586 48.0518 57.8586 48.3224C57.8586 48.3418 57.8103 48.5931 57.7136 49.0764C57.4043 50.5844 57.2496 51.7831 57.2496 52.6724C57.2496 52.7691 57.3463 52.8464 57.5396 52.9044C57.7329 52.9431 57.8296 52.9721 57.8296 52.9914C57.8296 53.6101 58.0133 55.4854 58.3806 58.6174C58.7673 61.7301 59.0959 63.6924 59.3666 64.5044V64.5334C59.3666 64.5721 59.2119 64.6978 58.9026 64.9104C58.6126 65.1231 58.4676 65.3551 58.4676 65.6064C58.4676 65.8578 58.6126 66.0318 58.9026 66.1284C59.2119 66.2251 59.5116 66.3024 59.8016 66.3604C60.0916 66.3991 60.2366 66.4958 60.2366 66.6504C60.2173 66.6891 60.2076 66.7568 60.2076 66.8534C60.2076 66.9501 60.2366 67.1241 60.2946 67.3754C60.3526 67.7621 60.5846 68.2744 60.9906 68.9124L61.1646 69.2024C61.1646 69.5311 60.6136 69.8791 59.5116 70.2464C58.4289 70.6331 57.6169 70.8264 57.0756 70.8264C56.5536 70.8264 56.0316 70.7201 55.5096 70.5074C55.0069 70.3141 54.5913 70.1014 54.2626 69.8694C53.9533 69.6374 53.7986 69.4731 53.7986 69.3764C53.7986 69.3571 53.8179 69.2508 53.8566 69.0574C53.9533 68.5741 54.0016 68.0521 54.0016 67.4914L53.3636 63.5184C53.3636 63.4411 53.5376 63.3734 53.8856 63.3154C54.2336 63.2574 54.4076 63.1318 54.4076 62.9384C54.4076 62.6871 54.2626 62.4744 53.9726 62.3004C53.6826 62.1264 53.3249 62.0394 52.8996 62.0394C52.4936 62.0394 52.0006 62.1458 51.4206 62.3584C50.8599 62.5711 50.5313 62.7741 50.4346 62.9674C50.3573 63.1414 50.2219 64.0018 50.0286 65.5484C49.8353 67.0758 49.7386 68.2164 49.7386 68.9704C49.7386 69.1251 49.2263 69.3378 48.2016 69.6084C47.1769 69.8791 46.3263 70.0144 45.6496 70.0144C45.3016 70.0144 44.7313 69.7631 43.9386 69.2604L43.5616 69.0284C43.5036 68.9704 43.4746 68.8834 43.4746 68.7674V68.7094C43.7646 68.3421 44.1126 67.5591 44.5186 66.3604L44.7506 65.7224C45.0019 65.7224 45.2919 65.5774 45.6206 65.2874C45.9686 64.9781 46.1426 64.7654 46.1426 64.6494C46.1426 64.5141 46.0363 64.3111 45.8236 64.0404C45.6109 63.7504 45.5046 63.5764 45.5046 63.5184V63.4894L46.5776 60.8214C46.5776 60.3961 46.7999 58.8978 47.2446 56.3264C47.7086 53.7551 47.9406 52.2471 47.9406 51.8024ZM74.4752 65.6354L74.5622 66.1864C74.5622 66.4571 74.3978 66.9598 74.0692 67.6944C73.7598 68.4098 73.5762 68.8061 73.5182 68.8834C73.3055 69.0768 72.8125 69.1734 72.0392 69.1734C70.5698 69.1734 69.2262 69.0961 68.0082 68.9414L67.3412 68.8544C67.0125 68.8544 66.7322 68.9704 66.5002 69.2024C66.2682 69.4151 65.9202 69.5214 65.4562 69.5214L62.8462 69.3474C61.8795 69.3474 61.3962 69.2314 61.3962 68.9994V68.9414C61.4928 68.6128 61.5412 68.0908 61.5412 67.3754L61.3962 64.9394V64.9104C61.3962 64.8138 61.5798 64.6301 61.9472 64.3594C62.3145 64.0888 62.4982 63.8471 62.4982 63.6344C62.4982 63.4218 62.4112 63.2188 62.2372 63.0254C62.0632 62.8321 61.7925 62.6774 61.4252 62.5614C61.3865 62.4454 61.3672 62.3294 61.3672 62.2134L61.5412 61.0534C61.5798 60.7828 61.5992 60.5314 61.5992 60.2994L61.3382 55.6594C61.3382 55.6014 61.4155 55.5144 61.5702 55.3984C61.8602 55.1858 62.0052 55.0021 62.0052 54.8474L61.8602 54.2094C61.7442 54.0934 61.5992 53.9968 61.4252 53.9194C61.1352 53.8228 60.9902 53.7261 60.9902 53.6294C60.9902 53.5134 61.0965 53.1848 61.3092 52.6434C61.5412 52.1021 61.6572 51.7638 61.6572 51.6284L61.1642 49.0764C61.1642 48.9218 61.5798 48.5448 62.4112 47.9454C63.2425 47.3268 63.9288 47.0174 64.4702 47.0174C65.0308 47.0174 65.7365 47.0851 66.5872 47.2204C67.4572 47.3558 67.8922 47.4911 67.8922 47.6264C67.8922 47.8584 67.8148 48.4771 67.6602 49.4824C67.5248 50.4684 67.4088 50.9904 67.3122 51.0484C66.8482 51.2804 66.6162 51.5318 66.6162 51.8024C66.6162 52.0538 66.7612 52.3148 67.0512 52.5854C67.3605 52.8368 67.5152 53.0011 67.5152 53.0784V53.1074C67.3605 55.2534 67.2832 56.7324 67.2832 57.5444C67.2832 58.3371 67.2928 58.8011 67.3122 58.9364C67.3508 59.0524 67.4475 59.1974 67.6022 59.3714C67.7762 59.5454 67.8632 59.6808 67.8632 59.7774C67.8632 59.8741 67.7568 60.0771 67.5442 60.3864C67.3508 60.6764 67.2542 60.9471 67.2542 61.1984C67.3122 61.7978 67.3412 62.2714 67.3412 62.6194C67.3412 62.9481 67.3218 63.1318 67.2832 63.1704C66.6065 63.8471 66.2682 64.4271 66.2682 64.9104C66.2682 65.0071 66.3165 65.1424 66.4132 65.3164C66.5098 65.4904 66.5872 65.5774 66.6452 65.5774C66.7225 65.5774 66.9448 65.4421 67.3122 65.1714C67.6795 64.8814 67.9598 64.7364 68.1532 64.7364H68.2402C68.8975 64.8718 69.5162 64.9394 70.0962 64.9394C70.6762 64.9394 71.0532 64.8524 71.2272 64.6784C71.8845 64.0211 72.4065 63.2478 72.7932 62.3584C72.8898 62.1264 72.9672 62.0104 73.0252 62.0104C73.5665 62.0104 74.0595 62.2424 74.5042 62.7064C74.9682 63.1704 75.2002 63.5571 75.2002 63.8664C75.0842 64.4658 74.9295 64.8814 74.7362 65.1134C74.5622 65.3261 74.4752 65.5001 74.4752 65.6354Z" fill="black"/>
<path d="M53.4506 57.9504H54.4506V57.7144L54.345 57.5032L53.4506 57.9504ZM53.4216 57.8634H54.4216V57.7087L54.3748 57.5612L53.4216 57.8634ZM51.6236 54.0934H50.6236V54.1368L50.6274 54.1801L51.6236 54.0934ZM51.7396 55.4274H52.7396V55.384L52.7359 55.3408L51.7396 55.4274ZM51.9136 58.3854L52.2298 59.3341L52.2532 59.3263L52.2761 59.3174L51.9136 58.3854ZM47.9406 51.8024H48.9406V51.6917L48.9164 51.5837L47.9406 51.8024ZM47.5636 50.1204H46.5636V50.2311L46.5878 50.3391L47.5636 50.1204ZM49.7676 48.6704L50.2424 49.5505L50.2465 49.5483L49.7676 48.6704ZM52.4066 47.3654L52.6161 48.3432L52.6161 48.3432L52.4066 47.3654ZM55.8866 47.4814L56.102 46.5049L56.1003 46.5045L55.8866 47.4814ZM57.7136 49.0764L58.6932 49.2774L58.6942 49.2725L57.7136 49.0764ZM57.5396 52.9044L57.2523 53.8623L57.2973 53.8758L57.3435 53.885L57.5396 52.9044ZM58.3806 58.6174L57.3874 58.7339L57.3882 58.7407L58.3806 58.6174ZM59.3666 64.5044H60.3666V64.3422L60.3153 64.1882L59.3666 64.5044ZM58.9026 64.9104L58.3361 64.0864L58.3235 64.095L58.3112 64.104L58.9026 64.9104ZM58.9026 66.1284L58.5864 67.0771L58.5953 67.0801L58.6043 67.0829L58.9026 66.1284ZM59.8016 66.3604L59.6055 67.341L59.6373 67.3474L59.6694 67.3517L59.8016 66.3604ZM60.2366 66.6504L61.131 67.0976L61.2366 66.8865V66.6504H60.2366ZM60.2946 67.3754L61.2835 67.2271L61.2778 67.1885L61.269 67.1506L60.2946 67.3754ZM60.9906 68.9124L61.8481 68.3979L61.8413 68.3867L61.8343 68.3756L60.9906 68.9124ZM61.1646 69.2024H62.1646V68.9254L62.0221 68.6879L61.1646 69.2024ZM59.5116 70.2464L59.1954 69.2977L59.1853 69.3011L59.1753 69.3047L59.5116 70.2464ZM55.5096 70.5074L55.8869 69.5813L55.8778 69.5776L55.8686 69.5741L55.5096 70.5074ZM54.2626 69.8694L53.6626 70.6694L53.6741 70.6781L53.6859 70.6864L54.2626 69.8694ZM53.8566 69.0574L54.8372 69.2535L54.8372 69.2535L53.8566 69.0574ZM54.0016 67.4914H55.0016V67.4117L54.989 67.3329L54.0016 67.4914ZM53.3636 63.5184H52.3636V63.5982L52.3763 63.677L53.3636 63.5184ZM53.8856 63.3154L53.7212 62.329L53.7212 62.329L53.8856 63.3154ZM53.9726 62.3004L54.4871 61.4429L54.4871 61.4429L53.9726 62.3004ZM51.4206 62.3584L51.0763 61.4195L51.066 61.4234L51.4206 62.3584ZM50.4346 62.9674L49.5402 62.5202L49.53 62.5405L49.5208 62.5613L50.4346 62.9674ZM50.0286 65.5484L51.0207 65.674L51.0209 65.6725L50.0286 65.5484ZM48.2016 69.6084L47.9462 68.6416L47.9462 68.6416L48.2016 69.6084ZM43.9386 69.2604L44.4742 68.4158L44.4627 68.4088L43.9386 69.2604ZM43.5616 69.0284L42.8545 69.7355L42.9375 69.8186L43.0375 69.8801L43.5616 69.0284ZM43.4746 68.7094L42.6897 68.0898L42.4746 68.3623V68.7094H43.4746ZM44.5186 66.3604L43.5788 66.0187L43.575 66.0291L43.5715 66.0396L44.5186 66.3604ZM44.7506 65.7224V64.7224H44.0502L43.8108 65.3807L44.7506 65.7224ZM45.6206 65.2874L46.2822 66.0373L46.285 66.0348L45.6206 65.2874ZM45.8236 64.0404L45.0172 64.6318L45.027 64.6452L45.0373 64.6583L45.8236 64.0404ZM45.5046 63.4894L44.5768 63.1163L44.5046 63.2959V63.4894H45.5046ZM46.5776 60.8214L47.5054 61.1946L47.5776 61.015V60.8214H46.5776ZM47.2446 56.3264L46.2605 56.1488L46.2592 56.156L47.2446 56.3264ZM54.345 57.5032C54.3486 57.5104 54.3627 57.5389 54.3775 57.5835C54.3853 57.6066 54.3954 57.6407 54.404 57.6836C54.4124 57.7255 54.4216 57.7874 54.4216 57.8634H52.4216C52.4216 58.1376 52.5329 58.3511 52.5562 58.3976L54.345 57.5032ZM54.3748 57.5612C54.1722 56.9221 54.0446 55.8133 54.0446 54.1514H52.0446C52.0446 55.8535 52.1683 57.2194 52.4684 58.1657L54.3748 57.5612ZM54.0446 54.1514V54.0354H52.0446V54.1514H54.0446ZM54.0446 54.0354C54.0446 53.7915 54.023 53.4753 53.8985 53.1848C53.8317 53.0288 53.7153 52.8335 53.5117 52.6751C53.2939 52.5057 53.037 52.4264 52.7836 52.4264V54.4264C52.6173 54.4264 52.4364 54.3725 52.2839 54.2538C52.1455 54.1463 52.0836 54.0271 52.0602 53.9726C52.0368 53.918 52.0354 53.8899 52.0383 53.9104C52.0408 53.9276 52.0446 53.9672 52.0446 54.0354H54.0446ZM52.7836 52.4264C52.3339 52.4264 51.8342 52.4853 51.4151 52.7263C50.9127 53.0152 50.6236 53.5118 50.6236 54.0934H52.6236C52.6236 54.131 52.6141 54.2121 52.5612 54.3031C52.5085 54.3941 52.4434 54.4421 52.4121 54.4601C52.387 54.4745 52.3952 54.4635 52.4644 54.4502C52.5317 54.4373 52.6353 54.4264 52.7836 54.4264V52.4264ZM50.6274 54.1801L50.7434 55.5141L52.7359 55.3408L52.6199 54.0068L50.6274 54.1801ZM50.7396 55.4274C50.7396 55.3611 50.7476 55.3164 50.7488 55.3097C50.7509 55.2979 50.7516 55.2968 50.7482 55.3099C50.7413 55.3366 50.7264 55.3867 50.6992 55.4662C50.6452 55.624 50.559 55.8507 50.4361 56.1531L52.2891 56.9058C52.4176 56.5895 52.5198 56.3232 52.5915 56.1136C52.6271 56.0095 52.6594 55.9073 52.6839 55.8132C52.7023 55.7425 52.7396 55.5926 52.7396 55.4274H50.7396ZM50.4361 56.1531C50.1694 56.8097 49.9856 57.4463 49.9856 58.0084H51.9856C51.9856 57.8359 52.0532 57.4865 52.2891 56.9058L50.4361 56.1531ZM49.9856 58.0084C49.9856 58.2139 49.9969 58.4563 50.0548 58.6762C50.0827 58.7822 50.1422 58.9672 50.2823 59.1446C50.4457 59.3517 50.7354 59.5594 51.1306 59.5594V57.5594C51.2844 57.5594 51.4372 57.5978 51.5737 57.672C51.705 57.7432 51.7948 57.8329 51.8521 57.9054C51.9559 58.0369 51.9852 58.153 51.9889 58.1672C51.9985 58.2034 51.9856 58.1703 51.9856 58.0084H49.9856ZM51.1306 59.5594C51.4762 59.5594 51.8671 59.455 52.2298 59.3341L51.5974 57.4367C51.4449 57.4876 51.3272 57.5204 51.2399 57.5397C51.147 57.5604 51.1168 57.5594 51.1306 57.5594V59.5594ZM52.2761 59.3174C52.5241 59.221 52.7396 59.1824 52.9286 59.1824V57.1824C52.4603 57.1824 51.9991 57.2792 51.5512 57.4534L52.2761 59.3174ZM52.9286 59.1824C53.1457 59.1824 53.4455 59.163 53.7262 59.0382C53.8783 58.9706 54.0667 58.8536 54.218 58.6519C54.3785 58.4379 54.4506 58.1901 54.4506 57.9504H52.4506C52.4506 57.7881 52.501 57.6079 52.618 57.4519C52.7257 57.3083 52.8489 57.2395 52.914 57.2106C53.0208 57.1632 53.0595 57.1824 52.9286 57.1824V59.1824ZM48.9164 51.5837L48.5394 49.9017L46.5878 50.3391L46.9648 52.0211L48.9164 51.5837ZM48.5636 50.1204C48.5636 50.4216 48.4208 50.6097 48.4054 50.6307C48.3704 50.6786 48.348 50.6952 48.3682 50.6772C48.4053 50.6439 48.4952 50.5741 48.6642 50.4628C48.9945 50.2455 49.515 49.943 50.2424 49.5505L49.2928 47.7903C48.5509 48.1906 47.9693 48.526 47.565 48.792C47.3667 48.9225 47.181 49.0556 47.0346 49.1867C46.9629 49.2508 46.8716 49.3399 46.7907 49.4507C46.7294 49.5345 46.5636 49.7758 46.5636 50.1204H48.5636ZM50.2465 49.5483C50.9862 49.1449 51.5648 48.8404 51.9871 48.6316C52.1988 48.5269 52.3628 48.4504 52.4833 48.3988C52.6229 48.339 52.6514 48.3357 52.6161 48.3432L52.1971 46.3876C52.0265 46.4242 51.8435 46.497 51.6955 46.5605C51.5285 46.632 51.3288 46.726 51.1006 46.8388C50.6432 47.065 50.0377 47.384 49.2888 47.7925L50.2465 49.5483ZM52.6161 48.3432C52.7702 48.3102 53.1641 48.2784 53.8856 48.2784V46.2784C53.1764 46.2784 52.5844 46.3046 52.1971 46.3876L52.6161 48.3432ZM53.8856 48.2784C54.5382 48.2784 55.1328 48.3402 55.6729 48.4583L56.1003 46.5045C55.4031 46.352 54.6637 46.2784 53.8856 46.2784V48.2784ZM55.6712 48.458C56.311 48.5991 56.7315 48.7259 56.9733 48.829C57.0989 48.8826 57.1196 48.9064 57.093 48.884C57.0801 48.8732 56.8586 48.6875 56.8586 48.3224H58.8586C58.8586 47.822 58.5549 47.4998 58.3778 47.3512C58.1867 47.1911 57.961 47.076 57.7579 46.9893C57.3424 46.8121 56.7768 46.6538 56.102 46.5049L55.6712 48.458ZM56.8586 48.3224C56.8586 48.2793 56.8615 48.246 56.8624 48.236C56.8637 48.2215 56.8651 48.2104 56.8658 48.2047C56.8672 48.1935 56.8683 48.1862 56.8683 48.1862C56.8685 48.1853 56.8677 48.1904 56.8651 48.2046C56.8603 48.2319 56.8522 48.2751 56.8404 48.3366C56.8169 48.4585 56.7812 48.6393 56.733 48.8803L58.6942 49.2725C58.7427 49.0302 58.7795 48.8437 58.8044 48.7143C58.8167 48.6501 58.8268 48.5966 58.834 48.5562C58.8375 48.5366 58.8412 48.5151 58.8444 48.4949C58.8459 48.4853 58.8482 48.4701 58.8503 48.4528C58.8504 48.4519 58.8586 48.3933 58.8586 48.3224H56.8586ZM56.734 48.8755C56.4194 50.4092 56.2496 51.6841 56.2496 52.6724H58.2496C58.2496 51.8821 58.3892 50.7597 58.6932 49.2774L56.734 48.8755ZM56.2496 52.6724C56.2496 53.1065 56.4843 53.4133 56.6974 53.5838C56.8892 53.7372 57.1005 53.8167 57.2523 53.8623L57.827 51.9466C57.7854 51.9341 57.8517 51.946 57.9468 52.0221C58.0633 52.1153 58.2496 52.335 58.2496 52.6724H56.2496ZM57.3435 53.885C57.3845 53.8932 57.416 53.9 57.4393 53.9055C57.4638 53.9112 57.4724 53.9138 57.4698 53.913C57.4681 53.9125 57.459 53.9098 57.4446 53.9045C57.432 53.8999 57.4025 53.8887 57.3643 53.8695C57.3355 53.8551 57.2493 53.8109 57.1561 53.727C57.0859 53.6638 56.8296 53.4159 56.8296 52.9914H58.8296C58.8296 52.5622 58.5703 52.3091 58.4941 52.2404C58.3948 52.1511 58.2996 52.1011 58.2587 52.0807C58.1687 52.0357 58.0851 52.0096 58.0445 51.9974C57.9498 51.969 57.84 51.9447 57.7357 51.9238L57.3435 53.885ZM56.8296 52.9914C56.8296 53.6838 57.0237 55.6328 57.3874 58.7339L59.3738 58.5009C59.0028 55.3381 58.8296 53.5364 58.8296 52.9914H56.8296ZM57.3882 58.7407C57.771 61.8221 58.1092 63.8944 58.4179 64.8207L60.3153 64.1882C60.0827 63.4904 59.7635 61.6381 59.373 58.4942L57.3882 58.7407ZM58.3666 64.5044V64.5334H60.3666V64.5044H58.3666ZM58.3666 64.5334C58.3666 64.3743 58.405 64.2504 58.4332 64.1782C58.4626 64.103 58.4954 64.0468 58.5171 64.013C58.559 63.9475 58.5978 63.9058 58.6094 63.8934C58.6352 63.866 58.646 63.8595 58.62 63.8806C58.5741 63.9178 58.4843 63.9845 58.3361 64.0864L59.4691 65.7345C59.6302 65.6237 59.7724 65.5212 59.8812 65.4328C59.9325 65.3911 60.0014 65.3325 60.0658 65.2641C60.0968 65.2312 60.1501 65.1716 60.2016 65.0911C60.2343 65.04 60.3666 64.8325 60.3666 64.5334H58.3666ZM58.3112 64.104C57.8817 64.419 57.4676 64.9147 57.4676 65.6064H59.4676C59.4676 65.6413 59.4624 65.6765 59.4526 65.7089C59.4431 65.7408 59.4314 65.7626 59.4244 65.7739C59.4121 65.7935 59.4208 65.7705 59.494 65.7168L58.3112 64.104ZM57.4676 65.6064C57.4676 65.9387 57.5692 66.2789 57.8081 66.5656C58.0344 66.8372 58.3247 66.9899 58.5864 67.0771L59.2188 65.1797C59.1905 65.1703 59.2633 65.1877 59.3446 65.2852C59.386 65.335 59.4196 65.3941 59.4413 65.4578C59.4625 65.52 59.4676 65.5724 59.4676 65.6064H57.4676ZM58.6043 67.0829C58.9441 67.1891 59.2779 67.2755 59.6055 67.341L59.9977 65.3799C59.7453 65.3294 59.4798 65.2611 59.2009 65.174L58.6043 67.0829ZM59.6694 67.3517C59.7529 67.3628 59.6858 67.3691 59.5732 67.294C59.5069 67.2498 59.4159 67.1711 59.3432 67.045C59.2679 66.9144 59.2366 66.7752 59.2366 66.6504H61.2366C61.2366 66.192 60.992 65.8361 60.6826 65.6299C60.4249 65.4581 60.1403 65.3967 59.9338 65.3692L59.6694 67.3517ZM59.3422 66.2032C59.2089 66.4698 59.2076 66.748 59.2076 66.8534H61.2076C61.2076 66.8347 61.2088 66.8438 61.2048 66.8716C61.2027 66.8864 61.1982 66.9131 61.1887 66.948C61.1795 66.9818 61.1624 67.0349 61.131 67.0976L59.3422 66.2032ZM59.2076 66.8534C59.2076 67.0794 59.2644 67.3582 59.3202 67.6003L61.269 67.1506C61.2427 67.0367 61.2257 66.9519 61.2158 66.892C61.2108 66.8625 61.2084 66.8437 61.2074 66.8339C61.2061 66.8224 61.2076 66.8309 61.2076 66.8534H59.2076ZM59.3057 67.5238C59.3959 68.125 59.723 68.7831 60.1469 69.4493L61.8343 68.3756C61.4462 67.7657 61.3094 67.3992 61.2835 67.2271L59.3057 67.5238ZM60.1331 69.4269L60.3071 69.7169L62.0221 68.6879L61.8481 68.3979L60.1331 69.4269ZM60.1646 69.2024C60.1646 68.9888 60.2573 68.8562 60.2859 68.8211C60.3102 68.7912 60.3042 68.8096 60.2174 68.8644C60.0433 68.9744 59.7195 69.1231 59.1954 69.2977L59.8278 71.1951C60.4057 71.0025 60.9084 70.7935 61.2854 70.5554C61.474 70.4363 61.6746 70.2831 61.8367 70.084C62.0031 69.8797 62.1646 69.5804 62.1646 69.2024H60.1646ZM59.1753 69.3047C58.1071 69.6862 57.4333 69.8264 57.0756 69.8264V71.8264C57.8006 71.8264 58.7508 71.58 59.8479 71.1882L59.1753 69.3047ZM57.0756 69.8264C56.693 69.8264 56.2987 69.7491 55.8869 69.5813L55.1323 71.4335C55.7645 71.6911 56.4142 71.8264 57.0756 71.8264V69.8264ZM55.8686 69.5741C55.4188 69.4011 55.0821 69.2239 54.8393 69.0525L53.6859 70.6864C54.1004 70.979 54.5951 71.2271 55.1506 71.4408L55.8686 69.5741ZM54.8626 69.0694C54.7264 68.9673 54.6627 68.908 54.6428 68.8868C54.6326 68.876 54.6564 68.8987 54.6879 68.9518C54.7047 68.9801 54.7302 69.028 54.7525 69.0936C54.7748 69.1591 54.7986 69.2561 54.7986 69.3764H52.7986C52.7986 69.6545 52.904 69.8645 52.9673 69.9714C53.0375 70.0898 53.1193 70.1862 53.1864 70.2575C53.3212 70.4007 53.4895 70.5396 53.6626 70.6694L54.8626 69.0694ZM54.7986 69.3764C54.7986 69.4123 54.7966 69.4399 54.7957 69.4515C54.7945 69.4656 54.7933 69.4763 54.7927 69.4819C54.7914 69.493 54.7904 69.4993 54.7906 69.4977C54.791 69.495 54.7928 69.484 54.797 69.4611C54.8051 69.4165 54.8182 69.3483 54.8372 69.2535L52.876 68.8613C52.8563 68.9599 52.8405 69.0415 52.8292 69.1033C52.8237 69.1336 52.8183 69.1648 52.8139 69.1936C52.8117 69.2076 52.8089 69.2269 52.8064 69.2483C52.8051 69.2588 52.7986 69.3117 52.7986 69.3764H54.7986ZM54.8372 69.2535C54.9484 68.6975 55.0016 68.1091 55.0016 67.4914H53.0016C53.0016 67.9951 52.9582 68.4507 52.876 68.8613L54.8372 69.2535ZM54.989 67.3329L54.351 63.3599L52.3763 63.677L53.0143 67.65L54.989 67.3329ZM54.3636 63.5184C54.3636 63.9132 54.1339 64.1493 54.0364 64.2305C53.9387 64.3119 53.8574 64.3414 53.8566 64.3417C53.846 64.3458 53.8952 64.3276 54.05 64.3018L53.7212 62.329C53.528 62.3612 53.3162 62.4059 53.1317 62.4777C53.0438 62.5118 52.8973 62.5763 52.7561 62.694C52.6151 62.8115 52.3636 63.085 52.3636 63.5184H54.3636ZM54.05 64.3018C54.2897 64.2619 54.5951 64.1816 54.8626 63.9884C55.1767 63.7615 55.4076 63.3951 55.4076 62.9384H53.4076C53.4076 62.8305 53.4336 62.7083 53.4971 62.5919C53.5586 62.479 53.6359 62.4073 53.6916 62.367C53.7851 62.2995 53.8295 62.311 53.7212 62.329L54.05 64.3018ZM55.4076 62.9384C55.4076 62.2178 54.9611 61.7273 54.4871 61.4429L53.4581 63.1579C53.5164 63.1929 53.5029 63.1981 53.4726 63.1538C53.4566 63.1302 53.4389 63.0971 53.4259 63.0555C53.4129 63.0136 53.4076 62.9733 53.4076 62.9384H55.4076ZM54.4871 61.4429C54.0063 61.1545 53.46 61.0394 52.8996 61.0394V63.0394C53.1899 63.0394 53.3589 63.0984 53.4581 63.1579L54.4871 61.4429ZM52.8996 61.0394C52.3316 61.0394 51.7151 61.1853 51.0764 61.4196L51.7649 63.2973C52.2861 63.1062 52.6556 63.0394 52.8996 63.0394V61.0394ZM51.066 61.4234C50.7548 61.5414 50.4676 61.6715 50.2281 61.8194C50.0134 61.952 49.7142 62.1721 49.5402 62.5202L51.329 63.4146C51.2849 63.5028 51.2382 63.5467 51.2323 63.5522C51.2248 63.5593 51.2358 63.5477 51.2791 63.521C51.3683 63.4659 51.5257 63.3881 51.7753 63.2934L51.066 61.4234ZM49.5208 62.5613C49.4511 62.7181 49.4104 62.9078 49.3862 63.0252C49.3552 63.1764 49.3222 63.3658 49.2873 63.5878C49.2172 64.0335 49.1335 64.6474 49.0363 65.4244L51.0209 65.6725C51.1171 64.9028 51.1977 64.3132 51.263 63.8986C51.2957 63.6904 51.3232 63.5355 51.3452 63.428C51.3743 63.2868 51.3794 63.3038 51.3484 63.3736L49.5208 62.5613ZM49.0365 65.4229C48.8422 66.9583 48.7386 68.1505 48.7386 68.9704H50.7386C50.7386 68.2823 50.8284 67.1932 51.0207 65.674L49.0365 65.4229ZM48.7386 68.9704C48.7386 68.7037 48.8499 68.5165 48.9173 68.4275C48.9837 68.3399 49.0458 68.2947 49.0599 68.2846C49.0875 68.2648 49.0732 68.2799 48.971 68.3223C48.7785 68.4022 48.4466 68.5094 47.9462 68.6416L48.457 70.5753C48.9813 70.4368 49.4179 70.3023 49.7377 70.1695C49.8917 70.1056 50.0695 70.0217 50.2252 69.91C50.3033 69.854 50.4135 69.7647 50.5119 69.6348C50.6113 69.5035 50.7386 69.2759 50.7386 68.9704H48.7386ZM47.9462 68.6416C46.9636 68.9012 46.2058 69.0144 45.6496 69.0144V71.0144C46.4467 71.0144 47.3903 70.857 48.457 70.5753L47.9462 68.6416ZM45.6496 69.0144C45.6841 69.0144 45.607 69.0179 45.3641 68.9108C45.1414 68.8127 44.8471 68.6524 44.4742 68.4159L43.4031 70.1049C43.8228 70.3711 44.2099 70.5878 44.5576 70.741C44.885 70.8853 45.2671 71.0144 45.6496 71.0144V69.0144ZM44.4627 68.4088L44.0857 68.1768L43.0375 69.8801L43.4145 70.1121L44.4627 68.4088ZM44.2687 68.3213C44.4644 68.517 44.4746 68.7293 44.4746 68.7674H42.4746C42.4746 69.0376 42.5428 69.4239 42.8545 69.7355L44.2687 68.3213ZM44.4746 68.7674V68.7094H42.4746V68.7674H44.4746ZM44.2595 69.3291C44.6713 68.8074 45.0654 67.8634 45.4658 66.6812L43.5715 66.0396C43.1599 67.2548 42.8579 67.8768 42.6897 68.0898L44.2595 69.3291ZM45.4584 66.7022L45.6904 66.0642L43.8108 65.3807L43.5788 66.0187L45.4584 66.7022ZM44.7506 66.7224C45.3713 66.7224 45.8946 66.3793 46.2822 66.0373L44.959 64.5376C44.8384 64.644 44.7553 64.6963 44.7094 64.7193C44.6643 64.7418 44.6827 64.7224 44.7506 64.7224V66.7224ZM46.285 66.0348C46.4754 65.8656 46.6505 65.6948 46.7861 65.5292C46.8537 65.4465 46.9301 65.3427 46.9938 65.2224C47.0506 65.115 47.1426 64.9113 47.1426 64.6494H45.1426C45.1426 64.5409 45.1625 64.4553 45.1794 64.4011C45.1964 64.3461 45.2153 64.3072 45.2262 64.2867C45.2464 64.2486 45.2575 64.239 45.2382 64.2627C45.2214 64.2831 45.191 64.3173 45.1419 64.3664C45.0935 64.4148 45.0322 64.4725 44.9562 64.54L46.285 66.0348ZM47.1426 64.6494C47.1426 64.3445 47.0314 64.0896 46.9487 63.9317C46.8568 63.7563 46.7373 63.5847 46.6099 63.4226L45.0373 64.6583C45.0783 64.7105 45.1099 64.754 45.1337 64.7893C45.1578 64.8251 45.171 64.8482 45.177 64.8597C45.1836 64.8722 45.1775 64.863 45.1687 64.8351C45.1604 64.8086 45.1426 64.7432 45.1426 64.6494H47.1426ZM46.63 63.4491C46.5813 63.3826 46.5409 63.3259 46.5081 63.2782C46.4749 63.2298 46.4521 63.1947 46.4376 63.171C46.4306 63.1594 46.4269 63.1528 46.4257 63.1507C46.4242 63.148 46.4276 63.154 46.4336 63.167C46.4387 63.1782 46.4523 63.2087 46.4659 63.2534C46.473 63.2766 46.482 63.3096 46.4895 63.3503C46.4968 63.3902 46.5046 63.4479 46.5046 63.5184H44.5046C44.5046 63.7672 44.5973 63.9608 44.6155 64.0003C44.652 64.08 44.6945 64.154 44.7311 64.2139C44.8059 64.3363 44.9047 64.4784 45.0172 64.6318L46.63 63.4491ZM46.5046 63.5184V63.4894H44.5046V63.5184H46.5046ZM46.4324 63.8626L47.5054 61.1946L45.6498 60.4483L44.5768 63.1163L46.4324 63.8626ZM47.5776 60.8214C47.5776 60.6977 47.6192 60.2961 47.7335 59.5255C47.843 58.7878 48.0082 57.7794 48.23 56.4968L46.2592 56.156C46.0364 57.4448 45.8681 58.4712 45.7552 59.2319C45.6472 59.9595 45.5776 60.5198 45.5776 60.8214H47.5776ZM48.2287 56.504C48.4613 55.2149 48.6371 54.1854 48.755 53.419C48.8679 52.6853 48.9406 52.1164 48.9406 51.8024H46.9406C46.9406 51.9332 46.8974 52.3406 46.7782 53.1149C46.6641 53.8565 46.4919 54.8666 46.2605 56.1488L48.2287 56.504ZM74.4752 65.6354H73.4752V65.7139L73.4874 65.7914L74.4752 65.6354ZM74.5622 66.1864H75.5622V66.108L75.5499 66.0305L74.5622 66.1864ZM74.0692 67.6944L73.1563 67.286L73.1513 67.2975L74.0692 67.6944ZM73.5182 68.8834L74.1908 69.6234L74.2611 69.5595L74.3182 69.4834L73.5182 68.8834ZM68.0082 68.9414L67.8788 69.933L67.8822 69.9335L68.0082 68.9414ZM67.3412 68.8544L67.4705 67.8628L67.4061 67.8544H67.3412V68.8544ZM66.5002 69.2024L67.1759 69.9396L67.1919 69.9249L67.2073 69.9095L66.5002 69.2024ZM65.4562 69.5214L65.3896 70.5192L65.4229 70.5214H65.4562V69.5214ZM62.8462 69.3474L62.9127 68.3496L62.8795 68.3474H62.8462V69.3474ZM61.3962 68.9414L60.4368 68.6593L60.3962 68.7974V68.9414H61.3962ZM61.5412 67.3754H62.5412V67.3457L62.5394 67.316L61.5412 67.3754ZM61.3962 64.9394H60.3962V64.9692L60.3979 64.9989L61.3962 64.9394ZM61.9472 64.3594L62.5404 65.1645L62.5404 65.1645L61.9472 64.3594ZM62.2372 63.0254L61.4939 63.6944L61.4939 63.6944L62.2372 63.0254ZM61.4252 62.5614L60.4765 62.8777L60.6377 63.3614L61.124 63.515L61.4252 62.5614ZM61.3672 62.2134L60.3782 62.0651L60.3672 62.1388V62.2134H61.3672ZM61.5412 61.0534L62.5301 61.2018L62.5311 61.1949L61.5412 61.0534ZM61.5992 60.2994H62.5992V60.2713L62.5976 60.2433L61.5992 60.2994ZM61.3382 55.6594H60.3382V55.6875L60.3397 55.7156L61.3382 55.6594ZM61.5702 55.3984L60.9788 54.592L60.9702 54.5984L61.5702 55.3984ZM62.0052 54.8474H63.0052V54.7352L62.9803 54.6258L62.0052 54.8474ZM61.8602 54.2094L62.8353 53.9878L62.7713 53.7064L62.5673 53.5023L61.8602 54.2094ZM61.4252 53.9194L61.8313 53.0056L61.7872 52.986L61.7414 52.9707L61.4252 53.9194ZM61.3092 52.6434L60.39 52.2495L60.384 52.2636L60.3784 52.2778L61.3092 52.6434ZM61.6572 51.6284H62.6572V51.5327L62.639 51.4388L61.6572 51.6284ZM61.1642 49.0764H60.1642V49.1721L60.1823 49.2661L61.1642 49.0764ZM62.4112 47.9454L62.996 48.7566L63.0021 48.7522L63.0082 48.7477L62.4112 47.9454ZM66.5872 47.2204L66.43 48.208L66.4335 48.2085L66.5872 47.2204ZM67.6602 49.4824L66.6718 49.3304L66.6705 49.3384L66.6694 49.3465L67.6602 49.4824ZM67.3122 51.0484L67.7594 51.9429L67.7937 51.9257L67.8267 51.9059L67.3122 51.0484ZM67.0512 52.5854L66.3688 53.3165L66.3939 53.3399L66.4206 53.3615L67.0512 52.5854ZM67.5152 53.1074L68.5126 53.1793L68.5152 53.1434V53.1074H67.5152ZM67.3122 58.9364L66.3222 59.0779L66.335 59.1671L66.3635 59.2527L67.3122 58.9364ZM67.6022 59.3714L66.8547 60.0358L66.8743 60.0578L66.895 60.0785L67.6022 59.3714ZM67.5442 60.3864L66.7201 59.8199L66.7161 59.8258L66.7121 59.8317L67.5442 60.3864ZM67.2542 61.1984H66.2542V61.2467L66.2588 61.2948L67.2542 61.1984ZM67.2832 63.1704L67.9903 63.8775L67.9903 63.8775L67.2832 63.1704ZM66.4132 65.3164L67.2873 64.8308L67.2873 64.8308L66.4132 65.3164ZM67.3122 65.1714L67.9054 65.9765L67.9187 65.9666L67.9318 65.9563L67.3122 65.1714ZM68.2402 64.7364L68.4418 63.757L68.342 63.7364H68.2402V64.7364ZM71.2272 64.6784L71.9343 65.3855L71.9343 65.3855L71.2272 64.6784ZM72.7932 62.3584L73.7102 62.7572L73.7133 62.7501L73.7162 62.743L72.7932 62.3584ZM74.5042 62.7064L73.7822 63.3983L73.7895 63.406L73.7971 63.4135L74.5042 62.7064ZM75.2002 63.8664L76.1819 64.0565L76.2002 63.9623V63.8664H75.2002ZM74.7362 65.1134L73.9679 64.4732L73.9622 64.4802L74.7362 65.1134ZM73.4874 65.7914L73.5744 66.3424L75.5499 66.0305L75.4629 65.4795L73.4874 65.7914ZM73.5622 66.1864C73.5622 66.158 73.5628 66.2281 73.4884 66.4557C73.4211 66.6615 73.3129 66.936 73.1563 67.2861L74.982 68.1028C75.154 67.7182 75.2924 67.374 75.3894 67.0772C75.4793 66.8021 75.5622 66.4855 75.5622 66.1864H73.5622ZM73.1513 67.2975C72.9979 67.6524 72.8786 67.9211 72.7921 68.1077C72.7486 68.2016 72.7165 68.268 72.6945 68.3111C72.6602 68.3784 72.6736 68.3429 72.7182 68.2834L74.3182 69.4834C74.3917 69.3853 74.4499 69.2713 74.476 69.2201C74.5144 69.1448 74.5584 69.0529 74.6067 68.9486C74.7039 68.7389 74.8311 68.4518 74.987 68.0913L73.1513 67.2975ZM72.8455 68.1435C72.9013 68.0927 72.9398 68.0797 72.926 68.0854C72.9139 68.0903 72.8744 68.1043 72.7965 68.1196C72.6376 68.1508 72.3918 68.1734 72.0392 68.1734V70.1734C72.4599 70.1734 72.8472 70.1478 73.1813 70.0822C73.4901 70.0217 73.8824 69.9037 74.1908 69.6234L72.8455 68.1435ZM72.0392 68.1734C70.604 68.1734 69.3032 68.0978 68.1341 67.9494L67.8822 69.9335C69.1491 70.0943 70.5356 70.1734 72.0392 70.1734V68.1734ZM68.1375 67.9498L67.4705 67.8628L67.2118 69.846L67.8788 69.933L68.1375 67.9498ZM67.3412 67.8544C66.7478 67.8544 66.213 68.0754 65.793 68.4953L67.2073 69.9095C67.2514 69.8654 67.2772 69.8544 67.3412 69.8544V67.8544ZM65.8244 68.4653C65.8478 68.4439 65.7865 68.5214 65.4562 68.5214V70.5214C66.0538 70.5214 66.6885 70.3863 67.1759 69.9396L65.8244 68.4653ZM65.5227 68.5236L62.9127 68.3496L62.7796 70.3452L65.3896 70.5192L65.5227 68.5236ZM62.8462 68.3474C62.3823 68.3474 62.1157 68.3177 61.992 68.288C61.9243 68.2718 61.9786 68.2735 62.0711 68.3401C62.1241 68.3784 62.2074 68.4507 62.2781 68.5695C62.3533 68.6959 62.3962 68.8449 62.3962 68.9994H60.3962C60.3962 69.4683 60.663 69.7908 60.9025 69.9632C61.1158 70.1168 61.3514 70.1911 61.5253 70.2328C61.885 70.3191 62.3433 70.3474 62.8462 70.3474V68.3474ZM62.3962 68.9994V68.9414H60.3962V68.9994H62.3962ZM62.3555 69.2236C62.495 68.7493 62.5412 68.106 62.5412 67.3754H60.5412C60.5412 68.0755 60.4906 68.4762 60.4368 68.6593L62.3555 69.2236ZM62.5394 67.316L62.3944 64.88L60.3979 64.9989L60.5429 67.4349L62.5394 67.316ZM62.3962 64.9394V64.9104H60.3962V64.9394H62.3962ZM62.3962 64.9104C62.3962 65.0541 62.3628 65.1654 62.3371 65.2316C62.311 65.2991 62.2826 65.3459 62.2671 65.3696C62.2379 65.4142 62.2202 65.4281 62.241 65.4073C62.2805 65.3678 62.3718 65.2887 62.5404 65.1645L61.354 63.5544C61.1552 63.7008 60.971 63.8489 60.8268 63.9931C60.7558 64.0641 60.6692 64.159 60.5941 64.2736C60.5335 64.3661 60.3962 64.5954 60.3962 64.9104H62.3962ZM62.5404 65.1645C62.7664 64.998 62.9858 64.805 63.1566 64.5803C63.3258 64.3576 63.4982 64.0353 63.4982 63.6344H61.4982C61.4982 63.5411 61.5187 63.469 61.5366 63.4246C61.5537 63.3823 61.5687 63.3642 61.5642 63.3701C61.5601 63.3756 61.5437 63.3957 61.5073 63.4295C61.4714 63.4629 61.4214 63.5047 61.354 63.5544L62.5404 65.1645ZM63.4982 63.6344C63.4982 63.1225 63.2811 62.6905 62.9804 62.3565L61.4939 63.6944C61.5203 63.7237 61.5203 63.7319 61.5138 63.7166C61.5105 63.7089 61.5063 63.697 61.5031 63.6816C61.4998 63.6661 61.4982 63.65 61.4982 63.6344H63.4982ZM62.9805 62.3565C62.643 61.9816 62.1875 61.7535 61.7263 61.6078L61.124 63.515C61.3975 63.6014 61.4833 63.6826 61.4939 63.6944L62.9805 62.3565ZM62.3738 62.2452C62.3673 62.2256 62.3672 62.2163 62.3672 62.2134H60.3672C60.3672 62.4426 60.4057 62.6652 60.4765 62.8777L62.3738 62.2452ZM62.3561 62.3618L62.5301 61.2018L60.5522 60.9051L60.3782 62.0651L62.3561 62.3618ZM62.5311 61.1949C62.5753 60.8854 62.5992 60.5862 62.5992 60.2994H60.5992C60.5992 60.4766 60.5843 60.6802 60.5512 60.912L62.5311 61.1949ZM62.5976 60.2433L62.3366 55.6033L60.3397 55.7156L60.6007 60.3556L62.5976 60.2433ZM62.3382 55.6594C62.3382 55.8632 62.2723 56.0111 62.235 56.0811C62.1957 56.1548 62.1568 56.2001 62.1436 56.215C62.1183 56.2435 62.1163 56.2389 62.1702 56.1984L60.9702 54.5984C60.8694 54.674 60.7514 54.7709 60.6487 54.8863C60.587 54.9558 60.3382 55.2354 60.3382 55.6594H62.3382ZM62.1615 56.2048C62.3447 56.0705 62.5316 55.9105 62.6813 55.7208C62.825 55.5388 63.0052 55.2392 63.0052 54.8474H61.0052C61.0052 54.7275 61.0336 54.6339 61.0588 54.5749C61.0832 54.518 61.1073 54.4869 61.1115 54.4815C61.1164 54.4754 61.1108 54.4835 61.087 54.5052C61.0638 54.5263 61.0288 54.5554 60.9788 54.592L62.1615 56.2048ZM62.9803 54.6258L62.8353 53.9878L60.885 54.4311L61.03 55.0691L62.9803 54.6258ZM62.5673 53.5023C62.3517 53.2868 62.0997 53.1249 61.8313 53.0056L61.019 54.8332C61.0986 54.8686 61.1366 54.9001 61.153 54.9165L62.5673 53.5023ZM61.7414 52.9707C61.6275 52.9328 61.6168 52.9178 61.6536 52.9424C61.6736 52.9557 61.7446 53.0049 61.8173 53.1019C61.8961 53.2069 61.9902 53.3881 61.9902 53.6294H59.9902C59.9902 54.2086 60.4113 54.5179 60.5442 54.6065C60.7261 54.7277 60.9328 54.8094 61.1089 54.8681L61.7414 52.9707ZM61.9902 53.6294C61.9902 53.722 61.9736 53.773 61.9827 53.7351C61.9877 53.7142 61.9992 53.6723 62.0214 53.6038C62.0654 53.4676 62.1368 53.2716 62.2399 53.0091L60.3784 52.2778C60.2689 52.5565 60.1807 52.7956 60.1185 52.9881C60.0875 53.0839 60.0591 53.1798 60.0375 53.27C60.02 53.3433 59.9902 53.4789 59.9902 53.6294H61.9902ZM62.2283 53.0374C62.3487 52.7564 62.4466 52.5108 62.5161 52.308C62.5696 52.1519 62.6572 51.8849 62.6572 51.6284H60.6572C60.6572 51.5424 60.6721 51.4973 60.6641 51.5301C60.6592 51.5501 60.6475 51.5914 60.6242 51.6594C60.5777 51.7949 60.5016 51.9892 60.39 52.2495L62.2283 53.0374ZM62.639 51.4388L62.146 48.8868L60.1823 49.2661L60.6753 51.8181L62.639 51.4388ZM62.1642 49.0764C62.1642 49.2696 62.1032 49.4044 62.0801 49.4511C62.0655 49.4807 62.0524 49.5018 62.0446 49.5138C62.0365 49.5261 62.0311 49.5332 62.0299 49.5347C62.0283 49.5368 62.0356 49.5272 62.0573 49.5049C62.0783 49.4833 62.1078 49.4546 62.1477 49.4184C62.314 49.2675 62.5902 49.0491 62.996 48.7566L61.8264 47.1343C61.4007 47.4411 61.0534 47.7108 60.8041 47.937C60.6818 48.0479 60.5566 48.1719 60.4543 48.3028C60.4029 48.3686 60.3404 48.4573 60.2872 48.5649C60.2381 48.6642 60.1642 48.8446 60.1642 49.0764H62.1642ZM63.0082 48.7477C63.8016 48.1572 64.2664 48.0174 64.4702 48.0174V46.0174C63.5913 46.0174 62.6833 46.4964 61.8141 47.1432L63.0082 48.7477ZM64.4702 48.0174C64.9582 48.0174 65.6069 48.0771 66.43 48.208L66.7443 46.2329C65.8661 46.0931 65.1034 46.0174 64.4702 46.0174V48.0174ZM66.4335 48.2085C66.8558 48.2743 67.1234 48.333 67.2688 48.3783C67.3488 48.4032 67.3354 48.407 67.2823 48.374C67.2549 48.357 67.1743 48.3042 67.0923 48.2021C67.0041 48.0924 66.8922 47.8951 66.8922 47.6264H68.8922C68.8922 47.0288 68.4342 46.7352 68.3389 46.6759C68.177 46.5752 68.0005 46.5114 67.863 46.4686C67.5734 46.3785 67.1885 46.3019 66.7409 46.2323L66.4335 48.2085ZM66.8922 47.6264C66.8922 47.7635 66.8315 48.292 66.6718 49.3304L68.6485 49.6345C68.7981 48.6622 68.8922 47.9534 68.8922 47.6264H66.8922ZM66.6694 49.3465C66.6029 49.8311 66.5445 50.176 66.4955 50.3965C66.4702 50.5101 66.4537 50.5621 66.4494 50.5737C66.4469 50.5805 66.4573 50.5495 66.4855 50.5011C66.5003 50.4757 66.5276 50.4325 66.5701 50.3826C66.611 50.3348 66.6848 50.2587 66.7977 50.1909L67.8267 51.9059C68.0563 51.7681 68.1728 51.5779 68.2131 51.5088C68.2667 51.4169 68.3031 51.3279 68.3272 51.2622C68.3761 51.1288 68.4151 50.9778 68.4478 50.8304C68.5148 50.5289 68.5821 50.1197 68.6509 49.6184L66.6694 49.3465ZM66.8649 50.154C66.3711 50.4009 65.6162 50.9007 65.6162 51.8024H67.6162C67.6162 51.8824 67.5981 51.9538 67.5735 52.0092C67.5503 52.0613 67.5269 52.0871 67.525 52.0892C67.5235 52.0908 67.5373 52.0757 67.5781 52.0474C67.6182 52.0195 67.677 51.984 67.7594 51.9429L66.8649 50.154ZM65.6162 51.8024C65.6162 52.4562 65.9908 52.9637 66.3688 53.3165L67.7335 51.8544C67.6413 51.7684 67.6073 51.7158 67.5991 51.701C67.5936 51.6912 67.6162 51.7288 67.6162 51.8024H65.6162ZM66.4206 53.3615C66.5626 53.4769 66.6387 53.5483 66.671 53.5825C66.6883 53.601 66.6713 53.586 66.6439 53.5432C66.6295 53.5207 66.602 53.4748 66.5763 53.4089C66.5518 53.346 66.5152 53.2303 66.5152 53.0784H68.5152C68.5152 52.7649 68.3756 52.5388 68.3284 52.4651C68.2624 52.3619 68.1873 52.2755 68.1274 52.2118C68.0049 52.0818 67.8491 51.9453 67.6817 51.8093L66.4206 53.3615ZM66.5152 53.0784V53.1074H68.5152V53.0784H66.5152ZM66.5177 53.0355C66.3633 55.1789 66.2832 56.6916 66.2832 57.5444H68.2832C68.2832 56.7732 68.3577 55.3279 68.5126 53.1793L66.5177 53.0355ZM66.2832 57.5444C66.2832 57.9436 66.2856 58.2657 66.2906 58.5078C66.2951 58.724 66.3023 58.9385 66.3222 59.0779L68.3021 58.795C68.3027 58.7991 68.2954 58.7138 68.2902 58.4661C68.2856 58.2442 68.2832 57.9379 68.2832 57.5444H66.2832ZM66.3635 59.2527C66.4681 59.5667 66.6767 59.8355 66.8547 60.0358L68.3496 58.7071C68.2934 58.6439 68.2615 58.6012 68.2457 58.5775C68.2382 58.5663 68.2371 58.5634 68.2398 58.5686C68.2423 58.5733 68.2511 58.5909 68.2608 58.6202L66.3635 59.2527ZM66.895 60.0785C66.9551 60.1386 66.9664 60.1593 66.9567 60.1442C66.9508 60.135 66.9306 60.1025 66.9105 60.0488C66.8906 59.9957 66.8632 59.9016 66.8632 59.7774H68.8632C68.8632 59.4485 68.7246 59.1956 68.6391 59.0627C68.5424 58.9122 68.4232 58.7783 68.3093 58.6643L66.895 60.0785ZM66.8632 59.7774C66.8632 59.701 66.8733 59.642 66.8807 59.6078C66.8883 59.5722 66.8966 59.5472 66.9008 59.5355C66.9085 59.5138 66.9109 59.5127 66.8976 59.5382C66.8854 59.5614 66.8654 59.5967 66.8348 59.6458C66.8046 59.6944 66.7667 59.7522 66.7201 59.8199L68.3682 60.953C68.4849 60.7833 68.5896 60.6181 68.6692 60.4662C68.7091 60.3902 68.7514 60.3009 68.7856 60.2043C68.8158 60.1194 68.8632 59.9654 68.8632 59.7774H66.8632ZM66.7121 59.8317C66.4502 60.2246 66.2542 60.6869 66.2542 61.1984H68.2542C68.2542 61.2073 68.2515 61.1283 68.3762 60.9411L66.7121 59.8317ZM66.2588 61.2948C66.3156 61.8815 66.3412 62.3185 66.3412 62.6194H68.3412C68.3412 62.2243 68.3087 61.714 68.2495 61.1021L66.2588 61.2948ZM66.3412 62.6194C66.3412 62.7712 66.3364 62.8587 66.3322 62.899C66.3298 62.9211 66.3303 62.9026 66.3409 62.8618C66.3464 62.8409 66.3593 62.7953 66.3854 62.7375C66.3989 62.7076 66.4188 62.668 66.4473 62.6234C66.4754 62.5794 66.517 62.5224 66.576 62.4633L67.9903 63.8775C68.2028 63.665 68.2634 63.4155 68.2761 63.3667C68.3013 63.2703 68.3138 63.1781 68.3212 63.1084C68.3363 62.965 68.3412 62.7963 68.3412 62.6194H66.3412ZM66.5761 62.4633C65.8721 63.1673 65.2682 63.999 65.2682 64.9104H67.2682C67.2682 64.8552 67.3409 64.5269 67.9903 63.8775L66.5761 62.4633ZM65.2682 64.9104C65.2682 65.2789 65.4299 65.6057 65.539 65.8021L67.2873 64.8308C67.2725 64.8041 67.2621 64.7836 67.2552 64.7687C67.2481 64.7537 67.2458 64.7471 67.2461 64.7481C67.2464 64.7487 67.2512 64.762 67.2562 64.7862C67.2611 64.8099 67.2682 64.8528 67.2682 64.9104H65.2682ZM65.539 65.8021C65.6016 65.9148 65.6866 66.0531 65.7962 66.1765C65.8562 66.244 66.1494 66.5774 66.6452 66.5774V64.5774C66.8831 64.5774 67.0545 64.6658 67.1388 64.7199C67.2243 64.7749 67.2743 64.829 67.2911 64.8478C67.3234 64.8842 67.3213 64.892 67.2873 64.8308L65.539 65.8021ZM66.6452 66.5774C66.8929 66.5774 67.0885 66.4875 67.1419 66.4634C67.2316 66.4229 67.3169 66.3745 67.3899 66.3301C67.538 66.2399 67.7128 66.1184 67.9054 65.9765L66.719 64.3664C66.5442 64.4951 66.4241 64.5766 66.35 64.6217C66.3117 64.645 66.304 64.6474 66.3188 64.6407C66.3266 64.6372 66.3538 64.6251 66.3955 64.6127C66.4172 64.6062 66.4482 64.598 66.4869 64.5912C66.5247 64.5845 66.579 64.5774 66.6452 64.5774V66.5774ZM67.9318 65.9563C68.087 65.8338 68.1937 65.7663 68.2573 65.7334C68.2877 65.7177 68.296 65.7163 68.2846 65.7198C68.2741 65.723 68.2274 65.7364 68.1532 65.7364V63.7364C67.8261 63.7364 67.541 63.8522 67.3385 63.957C67.1217 64.0691 66.9047 64.219 66.6925 64.3865L67.9318 65.9563ZM68.1532 65.7364H68.2402V63.7364H68.1532V65.7364ZM68.0385 65.7159C68.7521 65.8628 69.4388 65.9394 70.0962 65.9394V63.9394C69.5935 63.9394 69.0429 63.8807 68.4418 63.757L68.0385 65.7159ZM70.0962 65.9394C70.4283 65.9394 70.7498 65.9153 71.0388 65.8486C71.3143 65.785 71.6592 65.6606 71.9343 65.3855L70.5201 63.9713C70.5743 63.917 70.6196 63.8941 70.6305 63.8889C70.6413 63.8838 70.631 63.8901 70.589 63.8998C70.5011 63.9201 70.344 63.9394 70.0962 63.9394V65.9394ZM71.9343 65.3855C72.6841 64.6357 73.2757 63.7565 73.7102 62.7572L71.8761 61.9597C71.5372 62.739 71.0849 63.4065 70.5201 63.9713L71.9343 65.3855ZM73.7162 62.743C73.7561 62.6473 73.7705 62.63 73.7557 62.6521C73.7494 62.6616 73.709 62.7227 73.6288 62.7914C73.5576 62.8525 73.3486 63.0104 73.0252 63.0104V61.0104C72.6728 61.0104 72.4323 61.1829 72.3272 61.2729C72.2132 61.3706 72.1366 61.4753 72.0916 61.5427C71.9995 61.6809 71.9269 61.8375 71.8701 61.9738L73.7162 62.743ZM73.0252 63.0104C73.2432 63.0104 73.4879 63.0913 73.7822 63.3983L75.2261 62.0145C74.631 61.3935 73.8897 61.0104 73.0252 61.0104V63.0104ZM73.7971 63.4135C73.9949 63.6114 74.109 63.7596 74.1687 63.8589C74.2315 63.9637 74.2002 63.9577 74.2002 63.8664H76.2002C76.2002 63.4659 76.0528 63.1119 75.8837 62.8299C75.7113 62.5426 75.4774 62.2655 75.2113 61.9993L73.7971 63.4135ZM74.2184 63.6764C74.1672 63.9406 74.1124 64.1378 74.0599 64.2789C74.0053 64.4258 73.9668 64.4746 73.9679 64.4732L75.5044 65.7536C75.8692 65.3158 76.0604 64.6846 76.1819 64.0565L74.2184 63.6764ZM73.9622 64.4802C73.7683 64.7171 73.4752 65.1276 73.4752 65.6354H75.4752C75.4752 65.7083 75.4635 65.7639 75.4541 65.7974C75.4448 65.8307 75.4357 65.849 75.4348 65.8506C75.4338 65.8527 75.4379 65.8444 75.4508 65.8252C75.4636 65.8062 75.4827 65.7801 75.5101 65.7467L73.9622 64.4802Z" fill="black" mask="url(#path-1-outside-1_32_158)"/>
<path d="M60.3924 21.7587C67.4714 21.7414 82.0582 4.352 84.3155 25.2669C103.492 20.239 92.381 40.4485 94.586 47.3922C96.8187 54.3202 117.217 63.347 98.8485 72.0899C109.406 89.5124 87.51 84.7938 81.8078 89.1652C76.0978 93.5239 74.1525 116.519 60.4953 101.015C47.8462 116.844 45.3892 93.7007 39.6454 89.4224C33.8955 85.1615 12.3019 90.344 22.2313 72.0157C3.86449 64.3823 24.2381 54.7905 26.3954 47.7678C28.5574 40.7451 17.1606 20.9476 36.9579 25.1359C38.264 4.58872 53.3072 21.8108 60.3632 21.7729" stroke="black" stroke-width="2.128" stroke-linecap="round" stroke-linejoin="round"/>
<path d="M75.0801 24.0383C81.6104 26.7713 101.805 16.411 95.7635 36.5611C115.388 39.3745 97.3006 53.6833 96.6362 60.9384C96.0033 68.1896 111.295 84.4293 90.9734 85.353C93.9371 105.508 75.5915 92.6569 68.6392 94.4709C61.6847 96.2703 50.9626 116.705 44.3976 97.1149C26.5944 106.789 33.3174 84.5082 29.6857 78.3353C26.0417 72.1759 4.13019 68.5663 20.3977 55.5322C6.43657 41.3656 28.936 40.4381 33.6512 34.8043C38.3706 29.1723 35.556 6.50272 52.1733 18.0502C61.3559 -0.377283 68.5307 21.3349 75.0477 24.04" stroke="black" stroke-width="2.128" stroke-linecap="round" stroke-linejoin="round"/>
</svg>
