<svg width="81" height="80" viewBox="0 0 81 80" fill="none" xmlns="http://www.w3.org/2000/svg">
<g clip-path="url(#clip0_14_546)">
<path d="M61.4199 0H18.9199C8.56458 0 0.169922 8.39466 0.169922 18.75V61.25C0.169922 71.6053 8.56458 80 18.9199 80H61.4199C71.7753 80 80.1699 71.6053 80.1699 61.25V18.75C80.1699 8.39466 71.7753 0 61.4199 0Z" fill="#330000"/>
<path d="M38.8366 47.604H26.4366L23.9032 55.4375C23.8366 55.7375 23.5701 55.9375 23.2701 55.9041H17.0032C16.6366 55.9041 16.5366 55.7041 16.6366 55.3041L27.3701 24.4041C27.4701 24.0709 27.5701 23.704 27.7032 23.304C27.8366 22.604 27.9032 21.8709 27.9032 21.1375C27.8701 20.9709 28.0032 20.8041 28.1701 20.7709H36.8032C37.0701 20.7709 37.2032 20.8709 37.2366 21.0375L49.4032 55.3709C49.5032 55.7375 49.4032 55.9041 49.0701 55.9041H42.1032C41.8701 55.9375 41.6366 55.7709 41.5701 55.5375L38.8366 47.604ZM28.3701 40.8375H36.8366C36.6366 40.1375 36.3701 39.3041 36.0701 38.4375C35.7701 37.5375 35.4701 36.5709 35.1701 35.5709C34.8366 34.5375 34.5366 33.5375 34.2032 32.5041C33.8701 31.4709 33.5701 30.504 33.3032 29.5375C33.0366 28.6044 32.8032 27.7375 32.5701 26.9375H32.5032C32.2032 28.3709 31.8366 29.8044 31.3701 31.2375C30.8701 32.8375 30.3701 34.5041 29.8366 36.1709C29.4061 37.7442 28.9169 39.3008 28.3701 40.8375ZM56.8366 26.6041C55.7366 26.6375 54.6701 26.2041 53.8701 25.4375C53.1035 24.6041 52.7035 23.504 52.7366 22.3709C52.7035 21.2375 53.1366 20.1709 53.9366 19.404C54.7366 18.6375 55.8035 18.2375 56.9035 18.2375C58.2035 18.2375 59.2035 18.6375 59.9366 19.404C60.6754 20.2122 61.07 21.2765 61.0366 22.3709C61.0701 23.504 60.6701 24.6041 59.8701 25.4375C59.1035 26.2375 57.9701 26.6709 56.8366 26.6041ZM53.1035 55.5375V29.8709C53.1035 29.5375 53.2366 29.4041 53.5366 29.4041H60.1366C60.4366 29.4041 60.5701 29.5709 60.5701 29.8709V55.5375C60.5701 55.904 60.4366 56.0709 60.1366 56.0709H53.6035C53.2701 56.0709 53.1035 55.8709 53.1035 55.5375Z" fill="#FF9A00"/>
<path d="M14.1669 0H65.8331C73.6669 0 80 6.49551 80 14.5301V65.4699C80 73.5045 73.6669 80 65.8331 80H14.1669C6.33312 80 0 73.5045 0 65.4699V14.5301C0 6.49551 6.33312 0 14.1669 0Z" fill="#001E36"/>
<path d="M25.3016 22C24.2421 22 23.1826 22 22.088 22.0319C20.9927 22.0632 19.9683 22.0632 19.0148 22.095C18.0612 22.1263 17.1785 22.1263 16.3309 22.1576C15.5184 22.1889 14.9536 22.1889 14.3529 22.1889C14.106 22.1889 14 22.3146 14 22.5354V54.9298C14 55.2132 14.141 55.3395 14.4238 55.3395H21.2755C21.5225 55.3076 21.6993 55.1187 21.6635 54.8985V44.793C22.3343 44.793 22.829 44.793 23.1826 44.8243C23.5355 44.8556 24.1004 44.8556 24.948 44.8556C27.8444 44.8556 30.4931 44.5722 32.8942 43.7854C35.19 43.0298 37.168 41.7076 38.5804 39.9444C39.9931 38.1815 40.6994 35.9463 40.6994 33.2389C40.6994 31.8222 40.4173 30.4687 39.8876 29.1465C39.3263 27.7994 38.4469 26.5755 37.309 25.5576C35.966 24.3945 34.3493 23.5126 32.5764 22.9757C30.5984 22.3146 28.1973 22 25.3016 22ZM26.0896 28.2009C27.3477 28.2221 28.5728 28.4181 29.7157 28.8313C30.7401 29.1778 31.5877 29.8076 32.1883 30.6257C32.7516 31.4724 33.0334 32.4444 33.0008 33.4284C33.0008 34.8132 32.6472 35.8839 31.9056 36.6708C31.1282 37.4576 30.1395 38.0561 29.0098 38.3395C27.7027 38.7173 26.3253 38.9056 24.948 38.9056H23.076C22.6522 38.9056 22.1939 38.8743 21.6993 38.843V28.2652C21.9463 28.2333 22.4409 28.202 23.1475 28.2339C23.8183 28.202 24.6301 28.202 25.5486 28.202C25.7296 28.1981 25.9099 28.1977 26.0896 28.2009ZM55.7092 29.8082C53.2015 29.8082 51.1176 30.1541 49.4582 30.9097C47.9398 31.5395 46.6326 32.5465 45.7499 33.8056C44.9732 34.9708 44.5487 36.2611 44.5487 37.6152C44.5185 38.7289 44.7977 39.832 45.3612 40.8263C46.0217 41.8851 46.9388 42.7992 48.0457 43.5021C49.5993 44.4493 51.2852 45.2113 53.0605 45.7687C54.7908 46.3667 55.9562 46.8389 56.5218 47.248C57.0866 47.6576 57.3694 48.0667 57.3694 48.5076C57.3694 49.0743 56.9806 49.6097 56.4158 49.8298C55.7801 50.1132 54.8265 50.2708 53.4843 50.2708C52.0718 50.2708 50.6587 50.1132 49.3165 49.7985C47.7753 49.4917 46.2976 48.9713 44.9374 48.2561C44.8315 48.193 44.7255 48.1617 44.6196 48.2249C44.5136 48.2874 44.4785 48.4132 44.4785 48.5076V53.9854C44.4434 54.2374 44.6196 54.4576 44.8672 54.5833C46.0125 55.0603 47.2239 55.3991 48.4695 55.5909C50.0588 55.8743 51.6474 56 53.2717 56C55.8145 56 57.9342 55.6541 59.6645 54.993C61.2537 54.4263 62.6311 53.4506 63.6197 52.1909C64.5457 50.9526 65.0261 49.4921 64.9971 48.0041C65.0319 46.88 64.753 45.7659 64.1853 44.7617C63.5138 43.6909 62.5602 42.8097 61.3948 42.1485C59.6898 41.1941 57.8643 40.4226 55.9562 39.85C55.1042 39.5356 54.2675 39.189 53.4485 38.8111C52.9896 38.5909 52.5658 38.3076 52.248 37.9611C52.0361 37.7091 51.895 37.4263 51.895 37.143C51.895 36.8597 52.001 36.545 52.1771 36.293C52.4248 35.9784 52.8128 35.7576 53.2717 35.6632C53.9432 35.5061 54.6848 35.4111 55.3907 35.4424C56.733 35.4424 58.0395 35.6 59.3466 35.852C60.5478 36.0722 61.6775 36.4187 62.737 36.9228C62.8781 36.9854 63.0549 36.9854 63.3727 36.9228C63.4279 36.8864 63.4727 36.8388 63.5034 36.784C63.5341 36.7293 63.5499 36.6688 63.5495 36.6076V31.4763C63.5495 31.35 63.5138 31.2243 63.4787 31.0985C63.4078 30.9728 63.2668 30.8465 63.1257 30.8152C62.1517 30.4603 61.1311 30.217 60.0883 30.0909C58.6382 29.9027 57.1747 29.8086 55.7092 29.8082Z" fill="#31A8FF"/>
</g>
<defs>
<clipPath id="clip0_14_546">
<rect width="80" height="80" fill="white" transform="translate(0.169922)"/>
</clipPath>
</defs>
</svg>
