<svg width="81" height="80" viewBox="0 0 81 80" fill="none" xmlns="http://www.w3.org/2000/svg">
<g clip-path="url(#clip0_14_530)">
<path d="M61.4199 0H18.9199C8.56458 0 0.169922 8.39466 0.169922 18.75V61.25C0.169922 71.6053 8.56458 80 18.9199 80H61.4199C71.7753 80 80.1699 71.6053 80.1699 61.25V18.75C80.1699 8.39466 71.7753 0 61.4199 0Z" fill="#330000"/>
<path d="M38.8366 47.604H26.4366L23.9032 55.4375C23.8366 55.7375 23.5701 55.9375 23.2701 55.9041H17.0032C16.6366 55.9041 16.5366 55.7041 16.6366 55.3041L27.3701 24.4041C27.4701 24.0709 27.5701 23.704 27.7032 23.304C27.8366 22.604 27.9032 21.8709 27.9032 21.1375C27.8701 20.9709 28.0032 20.8041 28.1701 20.7709H36.8032C37.0701 20.7709 37.2032 20.8709 37.2366 21.0375L49.4032 55.3709C49.5032 55.7375 49.4032 55.9041 49.0701 55.9041H42.1032C41.8701 55.9375 41.6366 55.7709 41.5701 55.5375L38.8366 47.604ZM28.3701 40.8375H36.8366C36.6366 40.1375 36.3701 39.3041 36.0701 38.4375C35.7701 37.5375 35.4701 36.5709 35.1701 35.5709C34.8366 34.5375 34.5366 33.5375 34.2032 32.5041C33.8701 31.4709 33.5701 30.504 33.3032 29.5375C33.0366 28.6044 32.8032 27.7375 32.5701 26.9375H32.5032C32.2032 28.3709 31.8366 29.8044 31.3701 31.2375C30.8701 32.8375 30.3701 34.5041 29.8366 36.1709C29.4061 37.7442 28.9169 39.3008 28.3701 40.8375ZM56.8366 26.6041C55.7366 26.6375 54.6701 26.2041 53.8701 25.4375C53.1035 24.6041 52.7035 23.504 52.7366 22.3709C52.7035 21.2375 53.1366 20.1709 53.9366 19.404C54.7366 18.6375 55.8035 18.2375 56.9035 18.2375C58.2035 18.2375 59.2035 18.6375 59.9366 19.404C60.6754 20.2122 61.07 21.2765 61.0366 22.3709C61.0701 23.504 60.6701 24.6041 59.8701 25.4375C59.1035 26.2375 57.9701 26.6709 56.8366 26.6041ZM53.1035 55.5375V29.8709C53.1035 29.5375 53.2366 29.4041 53.5366 29.4041H60.1366C60.4366 29.4041 60.5701 29.5709 60.5701 29.8709V55.5375C60.5701 55.904 60.4366 56.0709 60.1366 56.0709H53.6035C53.2701 56.0709 53.1035 55.8709 53.1035 55.5375Z" fill="#FF9A00"/>
<g clip-path="url(#clip1_14_530)">
<path d="M61.335 0H18.835C8.47962 0 0.0849609 8.39466 0.0849609 18.75V61.25C0.0849609 71.6053 8.47962 80 18.835 80H61.335C71.6903 80 80.085 71.6053 80.085 61.25V18.75C80.085 8.39466 71.6903 0 61.335 0Z" fill="#00005B"/>
<path d="M32.9465 48.7875H20.5465L18.013 56.6541C17.9465 56.9541 17.6799 57.1541 17.3799 57.1209H11.113C10.7465 57.1209 10.6465 56.9209 10.7465 56.5209L21.4799 25.7541C21.5799 25.4209 21.6799 25.1209 21.813 24.7209C21.9465 24.0209 22.013 23.2875 22.013 22.5541C21.9799 22.3875 22.113 22.2209 22.2796 22.1875H30.913C31.1465 22.1875 31.313 22.2875 31.3465 22.4541L43.513 56.4541C43.613 56.8209 43.513 56.9875 43.1799 56.9875H36.213C35.9799 57.0209 35.7465 56.8541 35.6799 56.6209L32.9465 48.6209V48.7875ZM22.4799 42.1541H30.9465C30.7465 41.4541 30.4796 40.6209 30.1796 39.7541C29.8796 38.8541 29.5796 37.8875 29.2796 36.8875C28.9465 35.8541 28.6465 34.8541 28.313 33.8209C27.9796 32.7875 27.6799 31.8209 27.413 30.8541C27.1465 29.9209 26.913 29.0541 26.6796 28.2541H26.613C26.313 29.6875 25.9465 31.1209 25.4796 32.5541C24.9796 34.1541 24.4796 35.8209 23.9465 37.4875C23.513 39.1875 22.9796 40.7541 22.4799 42.1541ZM63.1465 45.7875H52.5799C52.713 46.8209 53.0465 47.8541 53.613 48.7541C54.213 49.6541 55.0465 50.3541 56.0465 50.7541C57.3799 51.3209 58.8465 51.6209 60.313 51.5875C61.4799 51.5541 62.6465 51.4541 63.7799 51.2209C64.7964 51.0878 65.7928 50.8302 66.7465 50.4541C66.913 50.3209 67.013 50.3875 67.013 50.7209V55.8209C67.013 55.9541 66.9799 56.0875 66.9465 56.2209C66.8799 56.3209 66.813 56.3875 66.713 56.4541C65.647 56.9223 64.5276 57.2582 63.3799 57.4541C61.8206 57.7539 60.234 57.888 58.6465 57.8541C56.113 57.8541 53.9799 57.4541 52.2465 56.6875C50.613 55.9875 49.1799 54.8875 48.0465 53.5209C46.9911 52.2367 46.2085 50.7508 45.7465 49.1541C45.2799 47.5875 45.0465 45.9541 45.0465 44.2875C45.0465 42.4875 45.313 40.7209 45.8799 38.9875C46.4113 37.3185 47.2602 35.7679 48.3799 34.4209C49.4799 33.0875 50.8465 32.0209 52.413 31.2541C53.9799 30.4875 55.8465 30.2209 57.9799 30.2209C59.7465 30.1875 61.513 30.5209 63.1465 31.2541C64.513 31.8541 65.713 32.7541 66.6465 33.9209C67.513 35.0541 68.213 36.3209 68.6465 37.7209C69.0799 39.0541 69.2799 40.4209 69.2799 41.7875C69.2799 42.5875 69.2465 43.2875 69.213 43.9209C69.1465 44.5541 69.113 45.0209 69.0799 45.3209C69.0465 45.5541 68.8465 45.7541 68.613 45.7541C68.413 45.7541 68.0465 45.7875 67.513 45.8209C66.9799 45.8875 66.3465 45.9209 65.5799 45.9209C64.813 45.9209 64.013 45.7875 63.1465 45.7875ZM52.5799 40.9209H59.613C60.4799 40.9209 61.113 40.9209 61.513 40.8875C61.7799 40.8541 62.0465 40.7875 62.2799 40.6209V40.2875C62.2812 39.8682 62.2136 39.4515 62.0799 39.0541C61.4799 37.1875 59.713 35.9209 57.7465 35.9875C56.8418 35.9368 55.9418 36.1491 55.1551 36.5986C54.3684 37.0482 53.7287 37.7158 53.313 38.5209C52.913 39.2875 52.6799 40.0875 52.5799 40.9209Z" fill="#9999FF"/>
</g>
</g>
<defs>
<clipPath id="clip0_14_530">
<rect width="80" height="80" fill="white" transform="translate(0.169922)"/>
</clipPath>
<clipPath id="clip1_14_530">
<rect width="80" height="80" fill="white" transform="translate(0.0849609)"/>
</clipPath>
</defs>
</svg>
